<svg xmlns="http://www.w3.org/2000/svg" xmlns:xlink="http://www.w3.org/1999/xlink" viewBox="0 0 660.45 383.53"><defs><style>.bc2a35aa-322e-4add-b3b6-29ee0399c675{fill:url(#a2a383e7-811e-445a-bc4a-9cd700aad330);}.bf32f257-d1fd-46e0-b0fb-ac4f66b2fa2e{opacity:0.8;}.a23a3193-3b11-4a65-9538-ec9d067aca45{fill:#fff;}.e0b78d19-be80-477e-a532-9a6349719559{fill:url(#f50903ec-ba36-46c2-9c93-0e59137c5264);}.fdd8d993-9935-4b2d-8274-2a9e6c0a145b{opacity:0.4;}.f9ff61cb-0e3d-4487-b436-a72357f1ec46{fill:url(#f1911d95-97ac-44ff-b1a4-516d3bb567ed);}.a89e2c3a-be50-4da1-b01e-075260f37473,.ac251068-a9be-474e-9f5e-8f6aa3033583{fill:none;stroke:#fff;stroke-miterlimit:10;}.a89e2c3a-be50-4da1-b01e-075260f37473{stroke-linecap:round;}.f27152f8-f1ff-43bd-8d1a-5272671b835b{fill:url(#aaa9603e-482f-49e4-8d8b-b4d59f1547c5);}.f7da912e-2534-4ca9-aa51-fd67b9c79b90{fill:url(#bb578021-15d0-42ca-a910-46c6081a50d2);}.fd6ee76a-195e-4fcd-89d6-f6c7b0d099b1{fill:url(#f51a5ea8-7465-4d56-92ff-6e315a02dc24);}.b59a87b0-7882-4092-99d9-e861f4ea2062{fill:url(#ede6b846-da17-4266-96bd-9955a0d767ac);}.acd06efa-0b39-460e-9cb5-50e0a8fae0fc{fill:#53538c;}.bb36c988-d1a2-4c61-a5d5-24915674e200{fill:#263238;}.aeb4a712-eea7-46cc-9e39-93a4645beea6{fill:#455a64;}.b7b24d22-660d-49c2-9c20-9779715c943a{fill:#ffbe9d;}.b1fbf7df-6920-4eb3-8af8-c6a486cb9fc1{fill:#eb996e;}.b0acafe3-a710-4a63-8d45-7a442699dad0{fill:url(#afda4cb8-8e08-4b77-9027-23ba27d5a4fa);}.b237a55f-ba99-4175-8f73-67dd2d54ce9d{fill:url(#ad34a9cf-ea4f-4799-b57a-bb6d0fe52c80);}</style><linearGradient id="a2a383e7-811e-445a-bc4a-9cd700aad330" x1="180.33" y1="269.83" x2="539.62" y2="269.83" gradientUnits="userSpaceOnUse"><stop offset="0" stop-color="#1e6afc"/><stop offset="1" stop-color="#05eefe"/></linearGradient><linearGradient id="f50903ec-ba36-46c2-9c93-0e59137c5264" x1="260.9" y1="250.92" x2="435.17" y2="250.92" xlink:href="#a2a383e7-811e-445a-bc4a-9cd700aad330"/><linearGradient id="f1911d95-97ac-44ff-b1a4-516d3bb567ed" x1="287.39" y1="336.85" x2="459.6" y2="164.65" xlink:href="#a2a383e7-811e-445a-bc4a-9cd700aad330"/><linearGradient id="aaa9603e-482f-49e4-8d8b-b4d59f1547c5" x1="33.48" y1="254.16" x2="225.98" y2="254.16" xlink:href="#a2a383e7-811e-445a-bc4a-9cd700aad330"/><linearGradient id="bb578021-15d0-42ca-a910-46c6081a50d2" x1="61.43" y1="255.38" x2="253.94" y2="255.38" xlink:href="#a2a383e7-811e-445a-bc4a-9cd700aad330"/><linearGradient id="f51a5ea8-7465-4d56-92ff-6e315a02dc24" x1="472.13" y1="257.72" x2="666.07" y2="257.72" xlink:href="#a2a383e7-811e-445a-bc4a-9cd700aad330"/><linearGradient id="ede6b846-da17-4266-96bd-9955a0d767ac" x1="499.98" y1="255" x2="693.93" y2="255" xlink:href="#a2a383e7-811e-445a-bc4a-9cd700aad330"/><linearGradient id="afda4cb8-8e08-4b77-9027-23ba27d5a4fa" x1="524.36" y1="71.13" x2="543.14" y2="71.13" xlink:href="#a2a383e7-811e-445a-bc4a-9cd700aad330"/><linearGradient id="ad34a9cf-ea4f-4799-b57a-bb6d0fe52c80" x1="531.39" y1="88.35" x2="536.47" y2="88.35" gradientTransform="translate(0.87 -5.12) rotate(0.55)" xlink:href="#a2a383e7-811e-445a-bc4a-9cd700aad330"/></defs><title>error</title><g id="bcae7b2d-ec48-45b7-bd12-03aa609c4319" data-name="Capa 8"><path class="bc2a35aa-322e-4add-b3b6-29ee0399c675" d="M538.22,289.8c-6.31-35.25-36.58-66-72.27-68.94-19.45-1.58-39,4.55-58.37,2.21a68,68,0,0,1-42.49-22.4c-16-18.2-21.41-44.09-38.35-61.41-23.34-23.89-64.07-24.26-92.47-6.69s-45.57,49.28-53.43,81.73l-.31,9.87C178.82,257.83,187.68,297,207.21,327c19.79,30.4,32.8,43,68.86,64.81,30.62,18.56,90.58,26.72,126.38,27.58s72.57-9.8,99.5-33.42S544.54,325.05,538.22,289.8Z" transform="translate(-33.48 -35.87)"/><g class="bf32f257-d1fd-46e0-b0fb-ac4f66b2fa2e"><path class="a23a3193-3b11-4a65-9538-ec9d067aca45" d="M538.22,289.8c-6.31-35.25-36.58-66-72.27-68.94-19.45-1.58-39,4.55-58.37,2.21a68,68,0,0,1-42.49-22.4c-16-18.2-21.41-44.09-38.35-61.41-23.34-23.89-64.07-24.26-92.47-6.69s-45.57,49.28-53.43,81.73l-.31,9.87C178.82,257.83,187.68,297,207.21,327c19.79,30.4,32.8,43,68.86,64.81,30.62,18.56,90.58,26.72,126.38,27.58s72.57-9.8,99.5-33.42S544.54,325.05,538.22,289.8Z" transform="translate(-33.48 -35.87)"/></g></g><g id="f26a351d-151f-4266-abb3-d97eac5efc99" data-name="404"><path class="e0b78d19-be80-477e-a532-9a6349719559" d="M435.16,280.45q.49,51.66-22.52,79t-63,27.7q-40.2.39-63.91-26.48t-24.22-78.52l-.58-60.56q-.5-51.46,22.52-79t63.21-27.88q40-.39,63.73,26.67t24.21,78.51Zm-44.83-66.92Q390,181,379,165.49t-32-15.32q-20.93.2-31.59,15.93T305,214.35l.7,73.59q.31,32.7,11.47,48.31t32.07,15.41q20.91-.2,31.49-15.93T391,287.12Z" transform="translate(-33.48 -35.87)"/><g class="fdd8d993-9935-4b2d-8274-2a9e6c0a145b"><path d="M435.16,280.45q.49,51.66-22.52,79t-63,27.7q-40.2.39-63.91-26.48t-24.22-78.52l-.58-60.56q-.5-51.46,22.52-79t63.21-27.88q40-.39,63.73,26.67t24.21,78.51Zm-44.83-66.92Q390,181,379,165.49t-32-15.32q-20.93.2-31.59,15.93T305,214.35l.7,73.59q.31,32.7,11.47,48.31t32.07,15.41q20.91-.2,31.49-15.93T391,287.12Z" transform="translate(-33.48 -35.87)"/></g><path class="f9ff61cb-0e3d-4487-b436-a72357f1ec46" d="M460.62,280.21q.5,51.65-22.52,79t-63,27.7q-40.2.39-63.91-26.49T287,281.88l-.58-60.56q-.5-51.46,22.52-79t63.21-27.89q40-.37,63.73,26.67T460,219.65Zm-44.83-66.92q-.32-32.52-11.38-48t-32-15.32q-20.93.21-31.59,15.93t-10.36,48.26l.71,73.58q.32,32.71,11.47,48.32t32.07,15.41q20.91-.21,31.49-15.93t10.26-48.62Z" transform="translate(-33.48 -35.87)"/><polygon class="ac251068-a9be-474e-9f5e-8f6aa3033583" points="302.66 118.9 289.77 110.04 292.02 94.56 307.15 87.95 320.04 96.81 317.79 112.28 302.66 118.9"/><polygon class="ac251068-a9be-474e-9f5e-8f6aa3033583" points="312.31 343.17 299.43 334.31 301.67 318.83 316.81 312.21 329.69 321.08 327.44 336.55 312.31 343.17"/><polygon class="ac251068-a9be-474e-9f5e-8f6aa3033583" points="343.05 343.68 334.24 337.61 335.78 327.03 346.13 322.51 354.94 328.57 353.4 339.15 343.05 343.68"/><polyline class="a89e2c3a-be50-4da1-b01e-075260f37473" points="298.13 212.15 288.96 215.9 267.16 200.13 271.65 173.61 297.95 162.85"/><path class="f27152f8-f1ff-43bd-8d1a-5272671b835b" d="M192.55,293.12,226,294.58,224.43,330,191,328.55l-2.57,58.87-44-1.92L147,326.63l-113.55-5,.08-27,121-173.8,45.42,2Zm-115-5,71,3.1,4.69-107.38-1.08-.41-4,7.65Z" transform="translate(-33.48 -35.87)"/><g class="fdd8d993-9935-4b2d-8274-2a9e6c0a145b"><path d="M192.55,293.12,226,294.58,224.43,330,191,328.55l-2.57,58.87-44-1.92L147,326.63l-113.55-5,.08-27,121-173.8,45.42,2Zm-115-5,71,3.1,4.69-107.38-1.08-.41-4,7.65Z" transform="translate(-33.48 -35.87)"/></g><path class="f7da912e-2534-4ca9-aa51-fd67b9c79b90" d="M220.51,294.34l33.43,1.46-1.55,35.43L219,329.77l-2.57,58.87-44-1.92L175,327.85l-113.56-5,.09-27,121-173.8,45.42,2Zm-115-5,71,3.1L181.23,185l-1.08-.41-4,7.66Z" transform="translate(-33.48 -35.87)"/><polygon class="ac251068-a9be-474e-9f5e-8f6aa3033583" points="152.22 128.24 139.34 119.38 141.58 103.91 156.71 97.29 169.6 106.15 167.35 121.63 152.22 128.24"/><polyline class="a89e2c3a-be50-4da1-b01e-075260f37473" points="141.21 298.91 151.15 294.57 164.03 303.43 161.79 318.91 146.66 325.52 140.25 321.11"/><polygon class="ac251068-a9be-474e-9f5e-8f6aa3033583" points="49.95 276.33 37.06 267.46 39.31 251.99 54.44 245.38 67.32 254.24 65.08 269.71 49.95 276.33"/><polygon class="ac251068-a9be-474e-9f5e-8f6aa3033583" points="74.08 279.06 68.22 275.03 69.24 267.99 76.12 264.98 81.98 269.01 80.96 276.05 74.08 279.06"/><polyline class="a89e2c3a-be50-4da1-b01e-075260f37473" points="144.29 228.35 156.7 222.92 183.69 241.48 178.98 273.89 147.29 287.75 120.31 269.19 122.28 255.65"/><polygon class="ac251068-a9be-474e-9f5e-8f6aa3033583" points="173.34 143.25 165.86 138.1 167.17 129.12 175.95 125.28 183.42 130.43 182.12 139.41 173.34 143.25"/><path class="fd6ee76a-195e-4fcd-89d6-f6c7b0d099b1" d="M629.32,293.41l33.3-3.25,3.45,35.29-33.3,3.26,5.73,58.64-43.8,4.29L589,333,475.84,344.06l-3.71-26.73,95.35-189.09,45.25-4.43ZM514.74,304.62l70.77-6.92-10.46-107-1.12-.25-2.86,8.14Z" transform="translate(-33.48 -35.87)"/><g class="fdd8d993-9935-4b2d-8274-2a9e6c0a145b"><path d="M629.32,293.41l33.3-3.25,3.45,35.29-33.3,3.26,5.73,58.64-43.8,4.29L589,333,475.84,344.06l-3.71-26.73,95.35-189.09,45.25-4.43ZM514.74,304.62l70.77-6.92-10.46-107-1.12-.25-2.86,8.14Z" transform="translate(-33.48 -35.87)"/></g><path class="b59a87b0-7882-4092-99d9-e861f4ea2062" d="M657.17,290.69l33.3-3.26,3.46,35.3L660.62,326l5.74,58.65-43.81,4.28-5.73-58.64L503.69,341.33,500,314.61l95.35-189.09,45.25-4.43ZM542.6,301.89,613.37,295,602.91,188l-1.13-.26-2.85,8.14Z" transform="translate(-33.48 -35.87)"/><polygon class="ac251068-a9be-474e-9f5e-8f6aa3033583" points="585.84 125.68 572.95 116.82 575.2 101.34 590.33 94.72 603.21 103.59 600.97 119.06 585.84 125.68"/><polygon class="ac251068-a9be-474e-9f5e-8f6aa3033583" points="592.69 239.13 579.81 230.27 582.05 214.8 597.18 208.18 610.07 217.04 607.82 232.52 592.69 239.13"/><polygon class="ac251068-a9be-474e-9f5e-8f6aa3033583" points="541.89 181.61 529.96 173.4 532.04 159.06 546.05 152.94 557.99 161.15 555.91 175.49 541.89 181.61"/><polyline class="a89e2c3a-be50-4da1-b01e-075260f37473" points="641.4 252.99 638.14 275.42 616.21 285 597.54 272.16 600.79 249.73 622.73 240.14"/><polyline class="a89e2c3a-be50-4da1-b01e-075260f37473" points="546.71 262.35 543.73 282.88 510.76 297.3 482.68 277.99 487.58 244.26 520.55 229.85 526.26 233.77"/><path class="acd06efa-0b39-460e-9cb5-50e0a8fae0fc" d="M459.08,221.54l-7-1.1-43.37-14-25.36-7.33a27.32,27.32,0,0,0-21.95,1.5c-12,6.1-45.06,36.88-45.06,36.88l23.81,24.55-11.21,49.68c12.55,35.68,37.12,39.77,37.12,39.77a87,87,0,0,0,35.2-5.82C424.07,337,448,316.59,451,307.82c1.8-5.26,3.29-16.32,4.47-28.81l36.12-14.72,9.79-50Z" transform="translate(-33.48 -35.87)"/><path class="bb36c988-d1a2-4c61-a5d5-24915674e200" d="M406.32,310s-.11.12-.35.31-.59.48-1.08.8a24.7,24.7,0,0,1-4.34,2.33,26.52,26.52,0,0,1-30-6.54,25,25,0,0,1-3-3.94c-.31-.49-.5-.9-.65-1.17a2.1,2.1,0,0,1-.19-.42,14.51,14.51,0,0,1,1,1.48,28,28,0,0,0,3.08,3.79,26.79,26.79,0,0,0,29.55,6.46,27.93,27.93,0,0,0,4.37-2.17C405.77,310.3,406.29,309.94,406.32,310Z" transform="translate(-33.48 -35.87)"/><path class="bb36c988-d1a2-4c61-a5d5-24915674e200" d="M392.6,208.51a.75.75,0,0,1,.08.24c.05.19.11.42.18.71.15.62.36,1.55.61,2.74a66.75,66.75,0,0,1,1.43,10.23,32.31,32.31,0,0,1-.41,7.14,23.23,23.23,0,0,1-2.85,7.71,30.5,30.5,0,0,1-5.93,6.87c-2.35,2.1-4.95,4-7.6,6.06-5.64,4.23-11.12,8.06-16,11.54s-9.23,6.59-12.69,9.21l-.11.09-.11-.09a74.8,74.8,0,0,1-6.94-6.25,17.12,17.12,0,0,1-1.63-1.92c-.17-.23-.27-.42-.35-.54a1.75,1.75,0,0,1-.11-.2s.19.24.54.68a23,23,0,0,0,1.68,1.85,88.17,88.17,0,0,0,7,6.11h-.22c3.44-2.66,7.74-5.83,12.64-9.32s10.36-7.34,16-11.57c2.64-2,5.24-3.95,7.57-6a30.22,30.22,0,0,0,5.86-6.74,22.56,22.56,0,0,0,2.83-7.53,32.33,32.33,0,0,0,.47-7.06,72.64,72.64,0,0,0-1.26-10.2c-.22-1.17-.39-2.09-.52-2.76q-.08-.43-.12-.72A.77.77,0,0,1,392.6,208.51Z" transform="translate(-33.48 -35.87)"/><path class="bb36c988-d1a2-4c61-a5d5-24915674e200" d="M580.93,231c10.15-8.71,13.59-24.38,8-36.53L574.63,193A20.39,20.39,0,0,0,585,172.44a27.31,27.31,0,0,1-31.23,5.75c-6.68-3.3-12.1-9.45-19.44-10.74-6.66-1.17-13.21,2-19.59,4.22s-14.1,3.51-19.38-.72c-4.18-3.35-5.48-9.22-5.21-14.58s1.82-10.58,2.15-15.93a36.19,36.19,0,0,0-11.59-28.22,27.46,27.46,0,0,0-43.11-13.71c-3.13,2.42-5.77,5.55-9.32,7.3-4,2-8.67,2-13,3s-8.9,3.94-9.36,8.39l-1.75,9.11c-.29.65-.6,1.29-1,1.92-3.68,6.46-11.22,10.71-12.87,18-.92,4.07.22,8.48-1.15,12.42-1.81,5.19-7.41,8.11-10,12.94-3.58,6.64-1.15,18.27,4.58,23.17s17.54,10.1,24.92,11.67c2-7.67,3.77-15.87,5.48-24.26,3,2.89,6.17,5.64,9.31,8.37,8.21,7.14,16.6,14.39,22.3,23.66,10.83,17.63,11,41,24.65,56.54,2.67,3.05,5.92,5.76,9.8,6.94s8.48.55,11.35-2.31c3.39-3.38,3.83-9.08,7.58-12.05,5-3.95,12.26-.8,17.61,2.63,3.88,2.48,7.76,5.1,12.15,6.46s9.51,1.27,13.25-1.41,5.38-8.4,2.68-12.13c-1.08-1.49-2.69-2.53-3.76-4s-1.38-3.87.09-5,3.88,0,5.63,1a33.53,33.53,0,0,0,48.74-18.13A27.79,27.79,0,0,1,580.93,231Z" transform="translate(-33.48 -35.87)"/><path class="bb36c988-d1a2-4c61-a5d5-24915674e200" d="M572,152.55a10.91,10.91,0,0,1,1.29,1.1,15,15,0,0,1,3,3.89,11.31,11.31,0,0,1,1.1,3.37,8,8,0,0,1-3.56,7.91,5.92,5.92,0,0,1-2.52.91,5.77,5.77,0,0,1-2.8-.4c-3.71-1.52-5.58-5.81-9.59-7.72-3.91-2.07-8.91-2.21-13.71-1.11s-9.49,3.71-14.22,6.37-9.76,5.51-15.55,6.5a21.83,21.83,0,0,1-8.6-.06,16.42,16.42,0,0,1-4-1.48,15.54,15.54,0,0,1-3.36-2.48,18.94,18.94,0,0,1-4.3-6.82A30.76,30.76,0,0,1,493.4,155c-.53-5-.11-9.8-.06-14.23a41.85,41.85,0,0,0-1.21-12.22,28.19,28.19,0,0,0-1.91-5,29,29,0,0,0-2.43-4.13,31.15,31.15,0,0,0-5.11-5.7,32.49,32.49,0,0,0-3.91-2.88l-1.09-.65-.36-.23a2.2,2.2,0,0,1,.39.19l1.12.6a29.78,29.78,0,0,1,9.2,8.51,29.87,29.87,0,0,1,4.45,9.2,41.55,41.55,0,0,1,1.29,12.32c0,4.46-.43,9.22.11,14.17a30.5,30.5,0,0,0,1.75,7.4,18.46,18.46,0,0,0,4.2,6.63,14.72,14.72,0,0,0,3.24,2.4,16.63,16.63,0,0,0,3.85,1.43,21.58,21.58,0,0,0,8.4.05c5.68-1,10.66-3.79,15.39-6.44s9.4-5.26,14.36-6.39a25.1,25.1,0,0,1,7.33-.62,19.26,19.26,0,0,1,3.49.57,15.87,15.87,0,0,1,3.2,1.25c4.15,2,6,6.34,9.53,7.75a5.33,5.33,0,0,0,5-.44,7.68,7.68,0,0,0,3-3.56,7.54,7.54,0,0,0,.5-4,10.81,10.81,0,0,0-1-3.31,15.71,15.71,0,0,0-2.84-3.91c-.39-.4-.7-.69-.91-.88S572,152.55,572,152.55Z" transform="translate(-33.48 -35.87)"/><path class="bb36c988-d1a2-4c61-a5d5-24915674e200" d="M408.55,210.27s0-.15-.08-.45a7.79,7.79,0,0,0-.27-1.31,11.1,11.1,0,0,0-2.45-4.46,19.15,19.15,0,0,0-6.63-4.61c-2.9-1.33-6.5-2-10.44-2.72s-8.41-1.58-12.43-4.26a18.45,18.45,0,0,1-2.94-28.11c4.14-4.25,10-6.36,14.78-10.09a18.69,18.69,0,0,0,3.14-3.21,13.27,13.27,0,0,0,1.92-4c.8-2.84.73-5.81,1-8.7a19.75,19.75,0,0,1,.8-4.27,10.72,10.72,0,0,1,2.11-3.74,15,15,0,0,1,7.15-4c2.57-.75,5.13-1.22,7.54-1.88a20.54,20.54,0,0,0,6.59-3,24.74,24.74,0,0,0,4.93-4.62A55.05,55.05,0,0,0,427,111.9c2.21-3.34,4.1-6.47,6.11-9a29.29,29.29,0,0,1,5.83-5.76,16.27,16.27,0,0,1,4.61-2.36,9.89,9.89,0,0,1,1.75-.44s-.61.14-1.72.54a16.61,16.61,0,0,0-4.52,2.43,29.16,29.16,0,0,0-5.72,5.77c-2,2.5-3.84,5.62-6,9a52.69,52.69,0,0,1-3.72,5.11,25.35,25.35,0,0,1-5,4.72,21,21,0,0,1-6.7,3c-2.44.68-5,1.15-7.53,1.9a14.44,14.44,0,0,0-6.92,3.85,10.24,10.24,0,0,0-2,3.56,19.11,19.11,0,0,0-.77,4.16c-.27,2.86-.19,5.85-1,8.8a13.56,13.56,0,0,1-2,4.12,19.08,19.08,0,0,1-3.24,3.3,66.66,66.66,0,0,1-7.69,4.89,33.58,33.58,0,0,0-7,5.15,18,18,0,0,0,2.82,27.4c3.9,2.63,8.34,3.47,12.25,4.26s7.56,1.44,10.48,2.81a19.12,19.12,0,0,1,6.67,4.74,11,11,0,0,1,2.4,4.57,7.15,7.15,0,0,1,.22,1.33C408.55,210.12,408.55,210.27,408.55,210.27Z" transform="translate(-33.48 -35.87)"/><path class="aeb4a712-eea7-46cc-9e39-93a4645beea6" d="M488.39,120.5a2.49,2.49,0,0,1-.76-.2,16.7,16.7,0,0,1-2-.8,26.43,26.43,0,0,1-10.69-9.19,17.91,17.91,0,0,1-1.09-1.86,2.42,2.42,0,0,1-.31-.73c.07,0,.64.92,1.7,2.37a30.74,30.74,0,0,0,10.55,9.08C487.38,120,488.43,120.42,488.39,120.5Z" transform="translate(-33.48 -35.87)"/><path class="aeb4a712-eea7-46cc-9e39-93a4645beea6" d="M521.64,188.71s-.63-.16-1.76-.4a28.66,28.66,0,0,0-4.86-.6,64.74,64.74,0,0,0-7.26.21c-2.74.19-5.76.47-8.95.4a24.31,24.31,0,0,1-8.83-1.66,15.75,15.75,0,0,1-5.92-4.32,11.07,11.07,0,0,1-2.27-4.39,7.58,7.58,0,0,1-.21-1.33,1.67,1.67,0,0,1,0-.47c.06,0,.09.64.41,1.75a11.6,11.6,0,0,0,2.37,4.2,15.57,15.57,0,0,0,5.82,4.12,24.53,24.53,0,0,0,8.65,1.58c3.15.07,6.16-.19,8.91-.36a57.09,57.09,0,0,1,7.31-.1,25.31,25.31,0,0,1,4.89.77,13.3,13.3,0,0,1,1.28.41A1.46,1.46,0,0,1,521.64,188.71Z" transform="translate(-33.48 -35.87)"/><path class="aeb4a712-eea7-46cc-9e39-93a4645beea6" d="M580.57,234.18s-.09,0-.29.13a4.18,4.18,0,0,1-.89.29,7.11,7.11,0,0,1-3.58-.16,11.54,11.54,0,0,1-4.8-3,20.06,20.06,0,0,1-3.86-6.47c-1.09-2.56-2-5.5-3.79-8.22a21.59,21.59,0,0,0-3.17-3.87,25.38,25.38,0,0,0-4.24-3.21c-6.28-3.79-14.53-5.34-23-4.84s-16.44,2.1-23.81,2.61a46.9,46.9,0,0,1-19.4-2,26.87,26.87,0,0,1-11.13-7,16.46,16.46,0,0,1-1.33-1.59,9.48,9.48,0,0,1-.86-1.25c-.2-.33-.36-.6-.49-.8a1.21,1.21,0,0,1-.15-.28s.08.08.2.25l.52.77a12,12,0,0,0,.9,1.21,15.86,15.86,0,0,0,1.36,1.55,27.11,27.11,0,0,0,11.09,6.76,47.2,47.2,0,0,0,19.25,1.88c7.33-.54,15.29-2.22,23.82-2.66s16.85,1.07,23.23,4.95a25.81,25.81,0,0,1,4.31,3.29,22.15,22.15,0,0,1,3.22,4c1.81,2.79,2.7,5.76,3.77,8.31a19.7,19.7,0,0,0,3.72,6.41,11.39,11.39,0,0,0,4.65,3,7,7,0,0,0,3.5.25C580.17,234.35,580.56,234.14,580.57,234.18Z" transform="translate(-33.48 -35.87)"/><path class="b7b24d22-660d-49c2-9c20-9779715c943a" d="M423.29,120.49a7.48,7.48,0,0,0-7.62,6.65h0l-8.09,84.21c-1.4,11.84,14.09,37.23,26.78,38.63h0c12.81,1.41,14.07-4.8,15.73-16,2.78-18.74,3.71-25.8,3.7-25.69s16.5-.55,22.62-21.18c3-10.26,4.78-27.51,5.75-41.67.87-12.75-5.46-29.36-18.24-29.69Z" transform="translate(-33.48 -35.87)"/><path class="bb36c988-d1a2-4c61-a5d5-24915674e200" d="M476.58,156.59a2.71,2.71,0,0,1-3,2.38,2.61,2.61,0,0,1-2.47-2.8,2.74,2.74,0,0,1,3-2.39A2.61,2.61,0,0,1,476.58,156.59Z" transform="translate(-33.48 -35.87)"/><path class="bb36c988-d1a2-4c61-a5d5-24915674e200" d="M477.73,151.14c-.32.38-2.48-1-5.41-.79s-5,1.82-5.31,1.49c-.16-.15.13-.81,1-1.56a7.5,7.5,0,0,1,4.22-1.63,7.16,7.16,0,0,1,4.33,1.07C477.53,150.35,477.88,151,477.73,151.14Z" transform="translate(-33.48 -35.87)"/><path class="bb36c988-d1a2-4c61-a5d5-24915674e200" d="M450.85,158.11c-.35.35-2.37-1.24-5.3-1.31s-5.12,1.33-5.43,1c-.15-.17.21-.8,1.17-1.45a7.41,7.41,0,0,1,4.36-1.21,7.18,7.18,0,0,1,4.2,1.49C450.73,157.31,451,158,450.85,158.11Z" transform="translate(-33.48 -35.87)"/><path class="bb36c988-d1a2-4c61-a5d5-24915674e200" d="M456.31,173.6c0-.17,1.86-.24,4.84-.23.75,0,1.47,0,1.67-.53a3.81,3.81,0,0,0-.21-2.26q-.69-2.84-1.45-6c-2-8.45-3.33-15.36-3-15.44s2.23,6.72,4.22,15.17c.48,2.08.93,4.06,1.36,6a4.32,4.32,0,0,1,0,3,1.87,1.87,0,0,1-1.36.92,5.08,5.08,0,0,1-1.29,0C458.13,174,456.3,173.76,456.31,173.6Z" transform="translate(-33.48 -35.87)"/><path class="b1fbf7df-6920-4eb3-8af8-c6a486cb9fc1" d="M453.79,208.27A54,54,0,0,1,426.56,197s5.21,15.42,26.56,16.23Z" transform="translate(-33.48 -35.87)"/><path class="bb36c988-d1a2-4c61-a5d5-24915674e200" d="M451.26,153.1c-.46.71-3.23-.33-6.67-.71s-6.37-.1-6.65-.9c-.12-.38.52-1,1.79-1.49a11.05,11.05,0,0,1,5.21-.56,11.19,11.19,0,0,1,4.94,1.78C451,152,451.47,152.76,451.26,153.1Z" transform="translate(-33.48 -35.87)"/><path class="bb36c988-d1a2-4c61-a5d5-24915674e200" d="M477.29,147.21c-.48.69-2.53.11-5,.2s-4.46.67-5,0c-.22-.33.07-1,.93-1.68a6.82,6.82,0,0,1,4-1.3,6.91,6.91,0,0,1,4,1.13C477.19,146.2,477.5,146.88,477.29,147.21Z" transform="translate(-33.48 -35.87)"/><path class="b1fbf7df-6920-4eb3-8af8-c6a486cb9fc1" d="M449.23,178.91a6.26,6.26,0,0,1,4.59-1,3.57,3.57,0,0,1,2.13,1.11,4.53,4.53,0,0,1,.75,3.05,6.14,6.14,0,0,1-.29,1.91,2.5,2.5,0,0,1-1.22,1.43,3.43,3.43,0,0,1-2,.1,7.52,7.52,0,0,1-3.09-1.12,3.81,3.81,0,0,1-1.72-2.7,2.58,2.58,0,0,1,1.55-2.66" transform="translate(-33.48 -35.87)"/><path class="bb36c988-d1a2-4c61-a5d5-24915674e200" d="M457.12,185.33c-.21.08-.6-.56-1.3-1.43a10.69,10.69,0,0,0-7.26-4.14c-1.11-.16-1.85-.17-1.9-.39s.65-.59,1.92-.72a8.37,8.37,0,0,1,4.81,1.08,8.25,8.25,0,0,1,3.37,3.59C457.3,184.47,457.31,185.27,457.12,185.33Z" transform="translate(-33.48 -35.87)"/><path class="bb36c988-d1a2-4c61-a5d5-24915674e200" d="M406.45,205.56c6.95-1.39,12.31-7.36,14.7-14s2.26-13.95,1.63-21a3.37,3.37,0,0,0-.95-2.48c-1.05-.81-2.56-.15-3.7.54a115.48,115.48,0,0,0-12.57,8.84c-3.72,3-7.4,6.45-8.83,11-2.19,7,2.44,15.35,9.53,17.19" transform="translate(-33.48 -35.87)"/><path class="b7b24d22-660d-49c2-9c20-9779715c943a" d="M566.2,203.93l-32.77-52.68-9.06-18.54s-2.89-3.83-5.89-7.1c-4.92-5.37-9.79-1.2-9.79-1.2a3.32,3.32,0,0,0-3.29-2,5.59,5.59,0,0,0-4.53,2.31s-1.34-1.49-5.06-1.72a3.87,3.87,0,0,0-2.35.76c-1.22-1.07-3.46-2.61-5.61-1.83-1.68.61-11.87,8.36-14.38,12.26-1.24,1.93,1.06,4.43,4.16,3.26a27.53,27.53,0,0,0,3.72-1.51,10.17,10.17,0,0,0,2.52-2s-2.57,4.5,0,5.29a5.89,5.89,0,0,0,4.83-1.17c1-.82,2.1-1.89,3.17-2.94l-.12.18c-1.42,2.1,2.28,5.21,4.07,3.95a26.62,26.62,0,0,0,2.39-1.9c4.16,3-1.61,6.89-4.05,6.69a74.6,74.6,0,0,0-11.28,0c-2.12.17-4,.68-5.16,1.85-1.38,1.42.07,4.4,2,4.7,3.59.56,8.17,1.35,12.93,2.58,5.6,1.44,20.27,6.21,20.27,6.21l1.43,1.16,19.93,48.61-34.12,7.23-7.62,43.24,61.6-16.72C568,235.6,574.61,217.13,566.2,203.93Z" transform="translate(-33.48 -35.87)"/><path class="b1fbf7df-6920-4eb3-8af8-c6a486cb9fc1" d="M512.93,159.29a4.2,4.2,0,0,1-.78-.19l-2.21-.63-8.11-2.41-5.59-1.69c-2-.62-4.15-1.26-6.43-1.84a61.37,61.37,0,0,0-7.22-1.49,12.36,12.36,0,0,1-3.92-.71,2.62,2.62,0,0,1-.88-.65,1.65,1.65,0,0,1-.3-.54l-.07-.53a5.1,5.1,0,0,1,.13-2.12,2.92,2.92,0,0,1,1.42-1.64,10.46,10.46,0,0,1,1.9-.76,12.88,12.88,0,0,1,4-.49c2.6,0,5.05.4,7.39.3a23.18,23.18,0,0,0,3.39-.33c1.09-.2,2.13-.48,3.15-.74a16.86,16.86,0,0,1,5.83-.75,15.76,15.76,0,0,1,4.7,1.2,29.68,29.68,0,0,1,3.28,1.61c.87.49,1.53.9,2,1.17a5.31,5.31,0,0,1,.66.45,4.1,4.1,0,0,1-.72-.36l-2-1.08a32.23,32.23,0,0,0-3.29-1.52,15.59,15.59,0,0,0-4.62-1.1,16.57,16.57,0,0,0-5.69.79c-1,.27-2.06.57-3.17.78a22.9,22.9,0,0,1-3.47.36c-2.38.11-4.86-.24-7.4-.27a12.54,12.54,0,0,0-3.8.47c-1.22.4-2.61.83-3,2.07a4.83,4.83,0,0,0-.11,1.9l.07.46a.8.8,0,0,0,.19.33,2.36,2.36,0,0,0,.71.53,12.45,12.45,0,0,0,3.75.66,61,61,0,0,1,7.28,1.54c2.29.59,4.43,1.25,6.43,1.89l5.58,1.75,8.06,2.57,2.18.72A4.09,4.09,0,0,1,512.93,159.29Z" transform="translate(-33.48 -35.87)"/><path class="b1fbf7df-6920-4eb3-8af8-c6a486cb9fc1" d="M487.66,122c.06.08-1.54,1-3.9,2.79a41.13,41.13,0,0,0-3.92,3.4c-1.4,1.36-2.87,3-4.61,4.45a4.74,4.74,0,0,0-1.84,2.47,1.74,1.74,0,0,0,1.2,2.14,5.26,5.26,0,0,0,2.64.05,12.51,12.51,0,0,0,2.3-.66,16.48,16.48,0,0,0,4.05-2.46,3.91,3.91,0,0,1-.9.94,12.26,12.26,0,0,1-3,1.87,12.73,12.73,0,0,1-2.35.74,5.74,5.74,0,0,1-2.88,0,2.22,2.22,0,0,1-1.55-2.71,5.25,5.25,0,0,1,2-2.76c1.71-1.46,3.18-3,4.62-4.4a35.37,35.37,0,0,1,4-3.34c1.22-.87,2.25-1.49,3-1.91A6.77,6.77,0,0,1,487.66,122Z" transform="translate(-33.48 -35.87)"/><path class="b1fbf7df-6920-4eb3-8af8-c6a486cb9fc1" d="M500.17,126.12a13.75,13.75,0,0,1-1.16,1.37l-3.29,3.62-4.93,5.33a12.16,12.16,0,0,1-3.46,2.64,5.35,5.35,0,0,1-2.3.57,3.2,3.2,0,0,1-2.3-.92,2.14,2.14,0,0,1-.54-1.25,3.6,3.6,0,0,1,.13-1.28,7.29,7.29,0,0,1,1.06-2.19h0v0c1.77-1.87,3.41-3.63,4.88-5.25s2.94-2.89,4.12-4a8.29,8.29,0,0,1,1.71-1.37,4.22,4.22,0,0,1,1.61-.36c.89-.06,1.41,0,1.36.12a4.1,4.1,0,0,0-1.34.06,4.53,4.53,0,0,0-1.51.4,9.17,9.17,0,0,0-1.61,1.39c-1.14,1.14-2.55,2.46-4,4.06s-3.08,3.42-4.84,5.31l0,0a7,7,0,0,0-1,2,3.21,3.21,0,0,0-.12,1.1,1.75,1.75,0,0,0,.42.95,2.71,2.71,0,0,0,1.92.75,4.83,4.83,0,0,0,2.07-.51,11.82,11.82,0,0,0,3.33-2.51l5-5.25,3.41-3.5.95-.94Q500.14,126.1,500.17,126.12Z" transform="translate(-33.48 -35.87)"/><path class="b1fbf7df-6920-4eb3-8af8-c6a486cb9fc1" d="M515.49,130.94s0,.31-.4.59A2.12,2.12,0,0,1,512,131c-.23-.38-.23-.67-.17-.68s.2.19.46.45a2.34,2.34,0,0,0,1.22.66,2.38,2.38,0,0,0,1.38-.21C515.23,131.06,515.43,130.89,515.49,130.94Z" transform="translate(-33.48 -35.87)"/><path class="b1fbf7df-6920-4eb3-8af8-c6a486cb9fc1" d="M516.69,135.53c-.11.09-.86-.66-1.52-1.79a4.16,4.16,0,0,1-.83-2.19c.13-.05.63.85,1.28,1.93A7.81,7.81,0,0,1,516.69,135.53Z" transform="translate(-33.48 -35.87)"/><path class="b1fbf7df-6920-4eb3-8af8-c6a486cb9fc1" d="M518.9,153.41a6.46,6.46,0,0,1-.95-2.08,17,17,0,0,1-.82-5.47,17.15,17.15,0,0,1,1-5.44,6.41,6.41,0,0,1,1-2.06,26.61,26.61,0,0,0-1.45,7.51A26.34,26.34,0,0,0,518.9,153.41Z" transform="translate(-33.48 -35.87)"/><path class="b1fbf7df-6920-4eb3-8af8-c6a486cb9fc1" d="M545.82,222.7c-.1,0-.2-1.06-.72-2.69a16.81,16.81,0,0,0-1.18-2.75,16.67,16.67,0,0,0-4.8-5.45,16.29,16.29,0,0,0-2.57-1.53c-1.54-.73-2.59-1-2.57-1.06a2.21,2.21,0,0,1,.75.1,11.61,11.61,0,0,1,2,.62,14.79,14.79,0,0,1,2.7,1.48,15.41,15.41,0,0,1,4.94,5.62,14.28,14.28,0,0,1,1.11,2.87,11.24,11.24,0,0,1,.37,2A2.48,2.48,0,0,1,545.82,222.7Z" transform="translate(-33.48 -35.87)"/><path class="b7b24d22-660d-49c2-9c20-9779715c943a" d="M431.44,319a14.23,14.23,0,0,0-8.33,1.06c-4.45-2-9.94,1.43-9.94,1.43-1.61-.77-11.31,5.57-11.31,5.57l-12.08,5.7-64.53-47.95,18.29-19-25.63-26.67-30,30.9a22.65,22.65,0,0,0-6,14.55,29.59,29.59,0,0,0,16.43,28l76,39a88.75,88.75,0,0,0,17.29-2.69c6.56-1.71,17.77-6.69,17.77-6.69s0,.34,2,4.23c3.61,7,8.9-.56,8.9-.56a14.51,14.51,0,0,0,2.06,3.42c4.57,4.43,7.74-1.52,7.74-1.52s1.37,2.39,5.45.61-.59-14.06-.59-14.06,1.37,2.67,4-.71S435.81,319.92,431.44,319Z" transform="translate(-33.48 -35.87)"/><path class="b1fbf7df-6920-4eb3-8af8-c6a486cb9fc1" d="M422.31,320.69a1.93,1.93,0,0,1,.84-.33,5,5,0,0,1,2.45.08,9.35,9.35,0,0,1,3.23,1.65,12.42,12.42,0,0,1,1.61,1.43,9.94,9.94,0,0,1,1.26,2,48.6,48.6,0,0,1,2.95,7.41c.3,1,.5,1.77.63,2.33a2.63,2.63,0,0,1,.13.88c-.07,0-.43-1.19-1.11-3.1a68.39,68.39,0,0,0-3.07-7.29,8.86,8.86,0,0,0-1.18-1.85,13.09,13.09,0,0,0-1.51-1.39,9.91,9.91,0,0,0-3-1.68A6.69,6.69,0,0,0,422.31,320.69Z" transform="translate(-33.48 -35.87)"/><path class="b1fbf7df-6920-4eb3-8af8-c6a486cb9fc1" d="M430.08,347.81a5.65,5.65,0,0,1-.57-1.11l-1.41-3.06c-1.19-2.59-2.93-6.13-4.59-10.16a27,27,0,0,0-2.63-5.47,9,9,0,0,0-3.71-3.09,6,6,0,0,0-3.2-.57c-.78.1-1.18.31-1.2.26s.09-.07.28-.17a3.19,3.19,0,0,1,.88-.29,5.87,5.87,0,0,1,3.39.43,9.17,9.17,0,0,1,3.95,3.16,26,26,0,0,1,2.72,5.54c1.65,4,3.34,7.58,4.45,10.21.55,1.31,1,2.39,1.26,3.13A5.72,5.72,0,0,1,430.08,347.81Z" transform="translate(-33.48 -35.87)"/><path class="b1fbf7df-6920-4eb3-8af8-c6a486cb9fc1" d="M400.46,332.38a5.67,5.67,0,0,1,1-.57l2.88-1.39c.62-.29,1.27-.61,2-.93a5.66,5.66,0,0,1,2.59-.38,5.39,5.39,0,0,1,2.72,1,8.53,8.53,0,0,1,2,2.36c.55.9,1,1.83,1.4,2.69s.87,1.69,1.31,2.47c.87,1.55,1.69,2.94,2.29,4.16a23.44,23.44,0,0,1,1.28,2.95,4.13,4.13,0,0,1,.32,1.13c-.08,0-.62-1.55-1.92-3.91-.65-1.18-1.49-2.54-2.39-4.09-.45-.78-.9-1.61-1.34-2.48s-.86-1.78-1.39-2.65a8.5,8.5,0,0,0-1.85-2.23,5.05,5.05,0,0,0-2.45-1,5.23,5.23,0,0,0-2.39.3c-.72.29-1.41.61-2,.86L401.57,332A4.86,4.86,0,0,1,400.46,332.38Z" transform="translate(-33.48 -35.87)"/><path class="b1fbf7df-6920-4eb3-8af8-c6a486cb9fc1" d="M401.86,327.07a3.86,3.86,0,0,1-.88.55c-.58.33-1.43.79-2.49,1.35-2.11,1.12-5.05,2.64-8.31,4.28s-6.22,3.1-8.38,4.14l-2.56,1.2a4,4,0,0,1-1,.37,4.36,4.36,0,0,1,.89-.56c.58-.32,1.43-.78,2.49-1.34,2.11-1.12,5.05-2.63,8.31-4.28s6.22-3.1,8.37-4.13c1.08-.52,2-.93,2.57-1.21A3.65,3.65,0,0,1,401.86,327.07Z" transform="translate(-33.48 -35.87)"/><path class="b1fbf7df-6920-4eb3-8af8-c6a486cb9fc1" d="M326.11,284.93a32.63,32.63,0,0,0-7.62-.25,33,33,0,0,0-7.36,2,7.1,7.1,0,0,1,2-1.12,19.12,19.12,0,0,1,5.3-1.42,19.33,19.33,0,0,1,5.5.14A7.05,7.05,0,0,1,326.11,284.93Z" transform="translate(-33.48 -35.87)"/><path class="bb36c988-d1a2-4c61-a5d5-24915674e200" d="M468.62,111.71a201,201,0,0,0-47.52,5c-3.61.83-7.43,1.89-9.87,4.67-2.59,2.94-3,7.13-3.38,11q-.62,7.13-1.24,14.25a32.82,32.82,0,0,1-2.27,3.39c-3.76,4.91-8.55,9-12,14.16s-5.31,12-2.53,17.52c1.69,3.34,4.81,5.7,7.09,8.66,3.87,5,5.13,11.51,7.39,17.44s6.34,12,12.57,13.16c3,.57,6.06-.06,9.05.38,4.47.65,8.23,3.58,11.78,6.37s7.41,5.63,11.91,6.08,9.65-2.6,9.74-7.12a10.56,10.56,0,0,1-10.87-.3c-2.62-1.73-4.31-4.53-6.56-6.71-5.53-5.36-14.43-7.06-18.28-13.73-3-5.27-1.83-11.88-.45-17.81,1.19-5.14,2.41-10.71.92-15.65a17.51,17.51,0,0,0,.19-2.4c0-5.26-2.05-10.9.4-15.55,3.24-6.16,12.58-6.94,15.85-13.07,1.91-3.57,1.24-8.13,3.32-11.6,1.95-3.26,5.86-4.76,9.58-5.57s7.63-1.18,10.91-3.1S470.11,115.2,468.62,111.71Z" transform="translate(-33.48 -35.87)"/><path class="bb36c988-d1a2-4c61-a5d5-24915674e200" d="M480.74,219a1,1,0,0,1-.15.25l-.49.69a13.9,13.9,0,0,1-2.3,2.33,15.53,15.53,0,0,1-4.57,2.45,15.79,15.79,0,0,1-6.8.79,14.37,14.37,0,0,1-7.66-3.14c-2.38-1.83-4.5-4.26-7.19-6.19a10.38,10.38,0,0,0-4.58-1.93,10,10,0,0,0-5.1.93,25.57,25.57,0,0,1-5.29,1.82,9.29,9.29,0,0,1-5.7-1,28.68,28.68,0,0,1-4.81-3.19,39.09,39.09,0,0,1-4.22-3.67,13.19,13.19,0,0,1-3-4.52,9.36,9.36,0,0,1-.34-5.2,28.27,28.27,0,0,1,1.51-4.69c.58-1.47,1.08-2.92,1.52-4.34a58.26,58.26,0,0,0,1.85-8,59.17,59.17,0,0,0,.65-11.93c-.06-1.41-.15-2.51-.23-3.25,0-.35,0-.62-.07-.84a.91.91,0,0,1,0-.29.9.9,0,0,1,.06.28l.12.84c.11.74.24,1.83.33,3.25a56.88,56.88,0,0,1-.48,12,58.87,58.87,0,0,1-1.8,8.11c-.44,1.42-.94,2.89-1.51,4.38A28.16,28.16,0,0,0,419,199.5a8.79,8.79,0,0,0,.34,4.94,12.73,12.73,0,0,0,2.9,4.34,38.46,38.46,0,0,0,4.17,3.61,28.21,28.21,0,0,0,4.72,3.13,8.74,8.74,0,0,0,5.39,1,25.42,25.42,0,0,0,5.18-1.79,10.57,10.57,0,0,1,5.35-.94,10.85,10.85,0,0,1,4.8,2c2.74,2,4.84,4.44,7.18,6.25a13.92,13.92,0,0,0,7.43,3.11,16,16,0,0,0,11.2-3A18.49,18.49,0,0,0,480.74,219Z" transform="translate(-33.48 -35.87)"/><path class="aeb4a712-eea7-46cc-9e39-93a4645beea6" d="M380.83,187.2a11.57,11.57,0,0,1-.8-1.11,11.31,11.31,0,0,1-1.42-3.64,15.06,15.06,0,0,1,.1-6.18,19,19,0,0,1,3.46-7.42,34.59,34.59,0,0,1,7.22-6.82c2.87-2.14,6.13-4.13,9.38-6.44a34.42,34.42,0,0,0,8.9-8.65,22.29,22.29,0,0,0,2.7-6c.64-2.14,1.08-4.38,1.6-6.64a35.3,35.3,0,0,1,2-6.58,14.86,14.86,0,0,1,3.93-5.43,16.68,16.68,0,0,1,5.67-3.13,26.29,26.29,0,0,1,6.08-1.2,69.41,69.41,0,0,1,11.4.36,52.91,52.91,0,0,0,9.86.13,21,21,0,0,0,7.73-2.3,15.32,15.32,0,0,0,4.73-3.82,11.49,11.49,0,0,0,1.92-3.35c.28-.84.39-1.3.41-1.29a9.79,9.79,0,0,1-.31,1.33,11.3,11.3,0,0,1-1.86,3.44,15.53,15.53,0,0,1-4.75,4,21.22,21.22,0,0,1-7.83,2.41,52.62,52.62,0,0,1-9.94-.07,70,70,0,0,0-11.32-.31,25.63,25.63,0,0,0-6,1.2,16.26,16.26,0,0,0-5.5,3,14.44,14.44,0,0,0-3.79,5.26,34.43,34.43,0,0,0-2,6.49c-.52,2.25-1,4.5-1.62,6.67a22.2,22.2,0,0,1-2.77,6.1,34.72,34.72,0,0,1-9,8.76c-3.28,2.32-6.54,4.29-9.4,6.4a34.21,34.21,0,0,0-7.18,6.7,18.44,18.44,0,0,0-3.47,7.25,14.76,14.76,0,0,0-.19,6.08A12.73,12.73,0,0,0,380.83,187.2Z" transform="translate(-33.48 -35.87)"/><path class="aeb4a712-eea7-46cc-9e39-93a4645beea6" d="M383.76,192.45a22.11,22.11,0,0,1-3.07-2.95,13.75,13.75,0,0,1-2.67-4.23,6.93,6.93,0,0,1-.46-3.13,6.21,6.21,0,0,1,1.35-3.27c1.62-2,4.3-3.06,7.11-3.65,1.41-.29,2.89-.52,4.36-.89a12.4,12.4,0,0,0,4.26-1.77,10.28,10.28,0,0,0,3.1-3.67,33.68,33.68,0,0,0,1.92-4.77,33.78,33.78,0,0,1,2-5,10.6,10.6,0,0,1,3.75-4.15,18.42,18.42,0,0,1,5.21-2c1.77-.46,3.52-.83,5.17-1.39a16.72,16.72,0,0,0,7.94-5.85A60.6,60.6,0,0,0,428.7,138a42.8,42.8,0,0,1,4.49-6.65,17.08,17.08,0,0,1,5.13-4.19,12.94,12.94,0,0,1,4.79-1.45,9,9,0,0,1,3.16.26,6.2,6.2,0,0,1,1,.36s-.37-.1-1.07-.26a9.81,9.81,0,0,0-3.11-.16,13.09,13.09,0,0,0-4.67,1.5,17,17,0,0,0-5,4.17,44.21,44.21,0,0,0-4.4,6.64,60.25,60.25,0,0,1-4.92,7.79,20.89,20.89,0,0,1-3.53,3.57A15.36,15.36,0,0,1,416,152c-1.68.58-3.45.95-5.2,1.41a17.75,17.75,0,0,0-5.06,2,10.11,10.11,0,0,0-3.58,4,33.32,33.32,0,0,0-2,4.93,33.44,33.44,0,0,1-2,4.83,11,11,0,0,1-3.26,3.84,13.24,13.24,0,0,1-4.43,1.82c-1.5.36-3,.58-4.38.87-2.77.56-5.38,1.59-6.91,3.45a5.88,5.88,0,0,0-1.31,3.08,6.69,6.69,0,0,0,.4,3,14.24,14.24,0,0,0,2.55,4.2c.88,1,1.63,1.79,2.14,2.3l.59.57C383.7,192.37,383.77,192.44,383.76,192.45Z" transform="translate(-33.48 -35.87)"/><path class="b1fbf7df-6920-4eb3-8af8-c6a486cb9fc1" d="M506.86,127.85a3.56,3.56,0,0,1-.52.77c-.36.48-.89,1.16-1.58,2-1.36,1.64-3.32,3.84-5.62,6.15-1.14,1.12-2.21,2.38-3.68,2.84a3.24,3.24,0,0,1-2.11,0,2.7,2.7,0,0,1-1.36-1.25,4.07,4.07,0,0,1-.37-2.54,2.38,2.38,0,0,1,.23-.9,4.29,4.29,0,0,1,0,.92,4.1,4.1,0,0,0,.49,2.34,2.31,2.31,0,0,0,1.19,1,2.75,2.75,0,0,0,1.81,0c1.28-.41,2.31-1.61,3.46-2.75,2.29-2.29,4.28-4.45,5.72-6A25.92,25.92,0,0,1,506.86,127.85Z" transform="translate(-33.48 -35.87)"/><path class="b1fbf7df-6920-4eb3-8af8-c6a486cb9fc1" d="M514.5,127.85a3.4,3.4,0,0,1-.61.78c-.41.48-1,1.16-1.78,2l-2.69,2.91-1.6,1.7A14.24,14.24,0,0,1,506,137a4.71,4.71,0,0,1-2.44,1,2.5,2.5,0,0,1-2.27-1,2,2,0,0,1-.37-1.16,2.29,2.29,0,0,1,.34-1.07c.37-.6.75-1.06,1.08-1.52.66-.91,1.21-1.64,1.6-2.14a3.45,3.45,0,0,1,.65-.74,4.11,4.11,0,0,1-.48.86c-.34.53-.84,1.29-1.47,2.23-.31.47-.69,1-1,1.52a1.49,1.49,0,0,0,0,1.74,2,2,0,0,0,1.85.76,4.22,4.22,0,0,0,2.16-.88,13,13,0,0,0,1.81-1.66l1.63-1.68,2.77-2.84c.79-.8,1.44-1.44,1.9-1.88A3.66,3.66,0,0,1,514.5,127.85Z" transform="translate(-33.48 -35.87)"/></g><g id="b96cc906-2bbf-4410-9c39-0b7ad859b9a4" data-name="Speech Bubble"><path class="a23a3193-3b11-4a65-9538-ec9d067aca45" d="M494.37,109.6l8-14.49a38.61,38.61,0,1,1,9.35,10.2v0Z" transform="translate(-33.48 -35.87)"/><path class="bb36c988-d1a2-4c61-a5d5-24915674e200" d="M494.37,109.6l17.37-4.4-.07.21,0,0-.61-.77.8.59a39.63,39.63,0,0,0,7.94,4.62,38.6,38.6,0,0,0,10.52,2.85,34.49,34.49,0,0,0,6.05.22c1-.07,2.1-.11,3.17-.21l3.21-.53a38.47,38.47,0,0,0,23.65-15.57,38.13,38.13,0,0,0,6.28-14.79A38.87,38.87,0,0,0,572,64.87a37.67,37.67,0,0,0-8.31-15.57l-1.57-1.69c-.52-.57-1.13-1-1.69-1.56a20.43,20.43,0,0,0-1.74-1.49l-1.84-1.35A15.81,15.81,0,0,0,555,42L553,40.82l-2-1a17.63,17.63,0,0,0-2-.89,38.77,38.77,0,0,0-17.09-2.47,37.45,37.45,0,0,0-15.63,4.76,38.78,38.78,0,0,0-17.94,22.4,42,42,0,0,0-1.58,12.44,38.34,38.34,0,0,0,5.8,19l0,.06,0,.07-8.15,14.42,7.93-14.55v.13a38.34,38.34,0,0,1-5.95-19.07,42,42,0,0,1,1.55-12.56A39.24,39.24,0,0,1,516,40.84,38.08,38.08,0,0,1,531.83,36a39.37,39.37,0,0,1,17.32,2.49,18,18,0,0,1,2.07.9l2.06,1,2,1.17a17.18,17.18,0,0,1,1.93,1.25L559,44.15c.64.44,1.17,1,1.77,1.51s1.18,1,1.71,1.58L564.11,49a37.91,37.91,0,0,1,8.42,15.78,39.44,39.44,0,0,1,.62,17.16,38.37,38.37,0,0,1-6.38,15,38.79,38.79,0,0,1-23.95,15.7l-3.26.53c-1.07.1-2.14.13-3.19.2a34.13,34.13,0,0,1-6.11-.25,38.45,38.45,0,0,1-10.61-2.92,39,39,0,0,1-8-4.71l.18-.18v0l.13.16-.2,0Z" transform="translate(-33.48 -35.87)"/><path class="b0acafe3-a710-4a63-8d45-7a442699dad0" d="M524.36,68l5-.05a4.25,4.25,0,0,1,4.33-4.32,4,4,0,0,1,3.95,2.55,4.49,4.49,0,0,1-.31,4.06c-.84,1.41-2.69,2.7-6.08,2.14l.11,11.31,5,0L536.27,77a9.7,9.7,0,0,0,6.87-9.53c-.07-7.33-6.66-9-9.48-8.94C531.51,58.58,524.18,59.17,524.36,68Z" transform="translate(-33.48 -35.87)"/><rect class="b237a55f-ba99-4175-8f73-67dd2d54ce9d" x="531.41" y="86" width="5.03" height="4.7" transform="translate(-34.3 -30.74) rotate(-0.55)"/></g></svg>