<svg xmlns="http://www.w3.org/2000/svg" xmlns:xlink="http://www.w3.org/1999/xlink" viewBox="0 0 643.86 443.06"><defs><style>.b6375236-48e4-4082-b759-4ee89da88190{fill:#f5f5f5;}.a0aaf286-7a88-4f0c-aa06-f81c2cd706d8{fill:#e0e0e0;}.ab1982ac-6d4d-4a62-afa5-c628d7a20699,.afa68c89-7e82-4ab2-a01b-bff1de9728a0,.afb8ff95-8625-4b9c-83c6-d3aa1ad3054e,.b25a2e13-986b-44c4-b657-dc865dff8653,.b87c5401-60be-4ade-9c1c-1d300f18b4b1,.eb1070af-9d42-4836-b7c8-c76eda2accd2,.f3467e1d-9554-4ab7-8ad5-df43a3e55dd9,.f9c7b8ae-e55f-4c47-968f-cd9343cfc45d,.fddb845f-528b-4a1a-bb36-b9b6cbe077cb{fill:none;stroke-miterlimit:10;}.afb8ff95-8625-4b9c-83c6-d3aa1ad3054e{stroke:#fff;}.b5204033-8ce9-4469-9b73-fa3994d73e7d{opacity:0.2;}.aab8eab7-f3e9-45e8-a033-f62ad51b96a6{fill:url(#a7fe9b10-f949-46f3-8865-bb63cabf7df1);}.a67cd53f-c015-4d8b-986d-d2591e43f6ce{fill:url(#a2c7ddea-e72e-48e7-8b38-4afbf73bc3b9);}.f9fe66da-05a1-4f20-9210-73721c4521ec{fill:#263238;}.bbeb712e-1da4-4e0f-a8a5-cb334ff7f7f3{fill:#455a64;}.a566133d-e88a-4afd-b7e6-03f65e883c0e{fill:#b78876;}.b7d893d7-eaf0-4272-a179-d4a8e0d8af6c{fill:#a36957;}.a4aaa590-8ad9-4b54-a5bc-b7e11946bd17{fill:url(#b1337aac-4b1f-4f2c-9a73-003a23ff15df);}.ed578661-ffcc-45fb-a207-57a8f540988a{fill:url(#eb4a585b-a0aa-4a94-9547-a94629bf09b0);}.f7fbdbe0-181b-40a6-b973-6cb22627500a{fill:url(#a9e4eebc-71ab-44de-9d6b-b261d0566bd1);}.bafced02-37f2-4274-8fa7-bd7749073bd3{fill:url(#f16e13b3-eab5-4faa-a689-7f4096ef9615);}.abc010bf-8094-4f79-96f4-db56590a3379{opacity:0.3;}.ab1982ac-6d4d-4a62-afa5-c628d7a20699,.afa68c89-7e82-4ab2-a01b-bff1de9728a0,.b25a2e13-986b-44c4-b657-dc865dff8653,.b87c5401-60be-4ade-9c1c-1d300f18b4b1,.eb1070af-9d42-4836-b7c8-c76eda2accd2,.f3467e1d-9554-4ab7-8ad5-df43a3e55dd9,.f9c7b8ae-e55f-4c47-968f-cd9343cfc45d,.fddb845f-528b-4a1a-bb36-b9b6cbe077cb{stroke-width:4px;}.b87c5401-60be-4ade-9c1c-1d300f18b4b1{stroke:url(#ac752ed0-fe4a-4026-ba5c-3081a36fe14c);}.f9c7b8ae-e55f-4c47-968f-cd9343cfc45d{stroke:url(#e226308e-ee59-4ca0-82d2-a404b3f8ac18);}.ab1982ac-6d4d-4a62-afa5-c628d7a20699{stroke:url(#a535818b-1918-400f-bfec-8693c5cc4ba9);}.b25a2e13-986b-44c4-b657-dc865dff8653{stroke:url(#f922d87b-c739-4155-976d-97c55a111f66);}.f3467e1d-9554-4ab7-8ad5-df43a3e55dd9{stroke:url(#b43ccfd9-3845-4e4f-954c-b0c1efa0cdd3);}.fddb845f-528b-4a1a-bb36-b9b6cbe077cb{stroke:url(#e47046f6-9a21-4d55-b21d-c28e13396293);}.afa68c89-7e82-4ab2-a01b-bff1de9728a0{stroke:url(#a44de722-d1f1-4acc-ad2a-f7ec618ecaa3);}.eb1070af-9d42-4836-b7c8-c76eda2accd2{stroke:url(#bf62a0db-f41d-44e0-aa09-0de6f02db5e1);}.f471a9ce-b9b0-4f42-86bb-267df7816cd8{fill:url(#fa306c5a-193f-4f88-9f07-0a2465181af6);}.e03b3fdb-9b2d-46a4-b37e-40faea6122c6{opacity:0.5;}.b05396c6-49c9-45bb-8fa5-7dd2f5b30c09{fill:url(#f25dac4a-d04c-44de-8527-0320a91959ea);}.aeb20a71-7452-4e3c-aa7f-069027234ccd{fill:#fff;}.ab51d496-4edd-4196-b5c7-a517c24410a1{fill:url(#a9f05599-483f-4bdf-91a6-5cbcc91d8ca9);}.f2ccc2d6-00ab-447a-9707-c65f9f81829b{fill:url(#b6446474-9ad6-4a16-8296-2df0aa5a5dc5);}</style><linearGradient id="a7fe9b10-f949-46f3-8865-bb63cabf7df1" x1="335.23" y1="70.57" x2="455.69" y2="70.57" gradientUnits="userSpaceOnUse"><stop offset="0" stop-color="#1e6afc"/><stop offset="1" stop-color="#05eefe"/></linearGradient><linearGradient id="a2c7ddea-e72e-48e7-8b38-4afbf73bc3b9" x1="326.23" y1="21.99" x2="328.81" y2="21.99" xlink:href="#a7fe9b10-f949-46f3-8865-bb63cabf7df1"/><linearGradient id="b1337aac-4b1f-4f2c-9a73-003a23ff15df" x1="563.92" y1="437.19" x2="593.34" y2="437.19" xlink:href="#a7fe9b10-f949-46f3-8865-bb63cabf7df1"/><linearGradient id="eb4a585b-a0aa-4a94-9547-a94629bf09b0" x1="607.76" y1="434.03" x2="634.71" y2="434.03" xlink:href="#a7fe9b10-f949-46f3-8865-bb63cabf7df1"/><linearGradient id="a9e4eebc-71ab-44de-9d6b-b261d0566bd1" x1="544.92" y1="190.68" x2="624.77" y2="190.68" xlink:href="#a7fe9b10-f949-46f3-8865-bb63cabf7df1"/><linearGradient id="f16e13b3-eab5-4faa-a689-7f4096ef9615" x1="531.71" y1="184.64" x2="557.54" y2="184.64" xlink:href="#a7fe9b10-f949-46f3-8865-bb63cabf7df1"/><linearGradient id="ac752ed0-fe4a-4026-ba5c-3081a36fe14c" x1="174.81" y1="126.23" x2="209.39" y2="126.23" xlink:href="#a7fe9b10-f949-46f3-8865-bb63cabf7df1"/><linearGradient id="e226308e-ee59-4ca0-82d2-a404b3f8ac18" x1="395.32" y1="170.76" x2="429.9" y2="170.76" xlink:href="#a7fe9b10-f949-46f3-8865-bb63cabf7df1"/><linearGradient id="a535818b-1918-400f-bfec-8693c5cc4ba9" x1="166.39" y1="76.82" x2="218.66" y2="76.82" xlink:href="#a7fe9b10-f949-46f3-8865-bb63cabf7df1"/><linearGradient id="f922d87b-c739-4155-976d-97c55a111f66" x1="650.34" y1="265.08" x2="684.91" y2="265.08" gradientTransform="translate(910.94 875.23) rotate(-135)" xlink:href="#a7fe9b10-f949-46f3-8865-bb63cabf7df1"/><linearGradient id="b43ccfd9-3845-4e4f-954c-b0c1efa0cdd3" x1="641.91" y1="215.67" x2="694.18" y2="215.67" gradientTransform="translate(910.94 875.23) rotate(-135)" xlink:href="#a7fe9b10-f949-46f3-8865-bb63cabf7df1"/><linearGradient id="e47046f6-9a21-4d55-b21d-c28e13396293" x1="15.95" y1="309.76" x2="68.22" y2="309.76" xlink:href="#a7fe9b10-f949-46f3-8865-bb63cabf7df1"/><linearGradient id="a44de722-d1f1-4acc-ad2a-f7ec618ecaa3" x1="50.59" y1="365.11" x2="81.98" y2="365.11" xlink:href="#a7fe9b10-f949-46f3-8865-bb63cabf7df1"/><linearGradient id="bf62a0db-f41d-44e0-aa09-0de6f02db5e1" x1="0" y1="394.67" x2="39.79" y2="394.67" xlink:href="#a7fe9b10-f949-46f3-8865-bb63cabf7df1"/><linearGradient id="fa306c5a-193f-4f88-9f07-0a2465181af6" x1="258.97" y1="331.21" x2="560.91" y2="331.21" xlink:href="#a7fe9b10-f949-46f3-8865-bb63cabf7df1"/><linearGradient id="f25dac4a-d04c-44de-8527-0320a91959ea" x1="172.57" y1="314.6" x2="509.32" y2="314.6" xlink:href="#a7fe9b10-f949-46f3-8865-bb63cabf7df1"/><linearGradient id="a9f05599-483f-4bdf-91a6-5cbcc91d8ca9" x1="502.1" y1="90.22" x2="521.72" y2="90.22" xlink:href="#a7fe9b10-f949-46f3-8865-bb63cabf7df1"/><linearGradient id="b6446474-9ad6-4a16-8296-2df0aa5a5dc5" x1="510.01" y1="107.68" x2="513.06" y2="107.68" xlink:href="#a7fe9b10-f949-46f3-8865-bb63cabf7df1"/></defs><title>warning</title><g id="b9515745-ecc9-4784-9e74-8972a3ea1e1b" data-name="Background Complete"><rect class="b6375236-48e4-4082-b759-4ee89da88190" x="151.54" y="143.03" width="134.99" height="198.77" transform="translate(-165.74 162.69) rotate(-33.78)"/><polygon class="a0aaf286-7a88-4f0c-aa06-f81c2cd706d8" points="204.48 279.66 203.21 287.54 147.43 279.5 148.7 271.62 204.48 279.66"/><polygon class="a0aaf286-7a88-4f0c-aa06-f81c2cd706d8" points="176.39 251.55 184.39 252.7 175.52 307.62 167.51 306.46 176.39 251.55"/><path class="afb8ff95-8625-4b9c-83c6-d3aa1ad3054e" d="M228.47,185" transform="translate(-67.94)"/><path class="a0aaf286-7a88-4f0c-aa06-f81c2cd706d8" d="M193,181.75c.08.11-11.16,7.78-25.11,17.1s-25.32,16.8-25.4,16.68,11.16-7.78,25.11-17.11S192.87,181.63,193,181.75Z" transform="translate(-67.94)"/><path class="a0aaf286-7a88-4f0c-aa06-f81c2cd706d8" d="M234.22,171.39c.08.12-18.62,12.76-41.76,28.24s-42,27.93-42.06,27.82S169,214.68,192.17,199.2,234.14,171.27,234.22,171.39Z" transform="translate(-67.94)"/><path class="a0aaf286-7a88-4f0c-aa06-f81c2cd706d8" d="M242.49,183.75c.08.12-18.62,12.77-41.76,28.25s-42,27.93-42.06,27.81,18.62-12.76,41.77-28.25S242.41,183.63,242.49,183.75Z" transform="translate(-67.94)"/><path class="a0aaf286-7a88-4f0c-aa06-f81c2cd706d8" d="M250.76,196.12c.08.12-18.62,12.77-41.76,28.24S167,252.3,167,252.18s18.61-12.77,41.76-28.25S250.68,196,250.76,196.12Z" transform="translate(-67.94)"/><path class="a0aaf286-7a88-4f0c-aa06-f81c2cd706d8" d="M259,208.49c.08.12-18.62,12.76-41.76,28.24s-42,27.93-42.05,27.81S193.83,251.78,217,236.3,259,208.37,259,208.49Z" transform="translate(-67.94)"/><rect class="b6375236-48e4-4082-b759-4ee89da88190" x="537.68" y="250.43" width="113.37" height="166.93" transform="translate(-153.25 386.8) rotate(-33.78)"/><polygon class="a0aaf286-7a88-4f0c-aa06-f81c2cd706d8" points="571.26 365.18 570.19 371.8 523.34 365.05 524.41 358.43 571.26 365.18"/><polygon class="a0aaf286-7a88-4f0c-aa06-f81c2cd706d8" points="547.67 341.57 554.39 342.54 546.94 388.66 540.21 387.69 547.67 341.57"/><path class="afb8ff95-8625-4b9c-83c6-d3aa1ad3054e" d="M602.29,285.68" transform="translate(-67.94)"/><path class="a0aaf286-7a88-4f0c-aa06-f81c2cd706d8" d="M572.46,283c.08.12-9.35,6.57-21.07,14.4s-21.28,14.09-21.36,14,9.36-6.56,21.07-14.4S572.38,282.83,572.46,283Z" transform="translate(-67.94)"/><path class="a0aaf286-7a88-4f0c-aa06-f81c2cd706d8" d="M607.11,274.25c.08.12-15.61,10.76-35,23.75s-35.26,23.45-35.34,23.33,15.61-10.76,35-23.76S607,274.13,607.11,274.25Z" transform="translate(-67.94)"/><path class="a0aaf286-7a88-4f0c-aa06-f81c2cd706d8" d="M614.06,284.63c.08.12-15.61,10.76-35,23.76s-35.26,23.44-35.34,23.32S559.28,321,578.72,308,614,284.52,614.06,284.63Z" transform="translate(-67.94)"/><path class="a0aaf286-7a88-4f0c-aa06-f81c2cd706d8" d="M621,295c.08.12-15.62,10.76-35,23.76s-35.26,23.44-35.34,23.32,15.61-10.75,35-23.76S620.93,294.9,621,295Z" transform="translate(-67.94)"/><path class="a0aaf286-7a88-4f0c-aa06-f81c2cd706d8" d="M628,305.41c.08.12-15.61,10.75-35,23.75s-35.26,23.44-35.34,23.33,15.61-10.76,35-23.76S627.87,305.29,628,305.41Z" transform="translate(-67.94)"/><rect class="b6375236-48e4-4082-b759-4ee89da88190" x="295.8" y="90.69" width="116.6" height="171.69" transform="translate(57.17 -146.13) rotate(28.14)"/><polygon class="a0aaf286-7a88-4f0c-aa06-f81c2cd706d8" points="279.48 232.37 272.96 234.6 256.4 188.83 262.92 186.59 279.48 232.37"/><polygon class="a0aaf286-7a88-4f0c-aa06-f81c2cd706d8" points="289.48 199.53 291.86 206.1 246.4 221.67 244.02 215.1 289.48 199.53"/><path class="afb8ff95-8625-4b9c-83c6-d3aa1ad3054e" d="M401.69,160.38" transform="translate(-67.94)"/><path class="a0aaf286-7a88-4f0c-aa06-f81c2cd706d8" d="M389.72,132c-.08.15-10.5-5.27-23.29-12.1s-23.08-12.5-23-12.65,10.51,5.27,23.3,12.1S389.8,131.84,389.72,132Z" transform="translate(-67.94)"/><path class="a0aaf286-7a88-4f0c-aa06-f81c2cd706d8" d="M414.4,159.23c-.08.15-17.34-8.93-38.55-20.27s-38.33-20.66-38.25-20.81,17.33,8.92,38.54,20.27S414.48,159.08,414.4,159.23Z" transform="translate(-67.94)"/><path class="a0aaf286-7a88-4f0c-aa06-f81c2cd706d8" d="M408.34,170.56c-.08.15-17.34-8.92-38.55-20.26s-38.33-20.67-38.25-20.82,17.33,8.93,38.54,20.27S408.42,170.41,408.34,170.56Z" transform="translate(-67.94)"/><path class="a0aaf286-7a88-4f0c-aa06-f81c2cd706d8" d="M402.28,181.89c-.08.15-17.34-8.92-38.55-20.26S325.4,141,325.48,140.82s17.33,8.92,38.54,20.26S402.36,181.74,402.28,181.89Z" transform="translate(-67.94)"/><path class="a0aaf286-7a88-4f0c-aa06-f81c2cd706d8" d="M396.22,193.22c-.08.15-17.34-8.92-38.55-20.26s-38.34-20.66-38.25-20.81,17.33,8.92,38.54,20.26S396.3,193.07,396.22,193.22Z" transform="translate(-67.94)"/><rect class="b5204033-8ce9-4469-9b73-fa3994d73e7d" x="326.23" width="2.58" height="43.98"/></g><g id="b2502b4c-5fdc-4dbc-a7f6-63a456b0d9f0" data-name="Lamp"><path class="aab8eab7-f3e9-45e8-a033-f62ad51b96a6" d="M335.23,97.19H455.69S444.57,44,394.55,44C350.06,44,335.23,97.19,335.23,97.19Z" transform="translate(-67.94)"/><rect class="a67cd53f-c015-4d8b-986d-d2591e43f6ce" x="326.23" width="2.58" height="43.98"/></g><g id="a3251e8d-f289-41f6-aa23-6b1562c50d30" data-name="Floor"><path class="f9fe66da-05a1-4f20-9210-73721c4521ec" d="M663.67,439.83c0,.14-129.25.26-288.66.26S86.33,440,86.33,439.83s129.23-.26,288.68-.26S663.67,439.68,663.67,439.83Z" transform="translate(-67.94)"/></g><g id="a5f1ee6d-051c-4aa6-ad60-c360dbea3e2f" data-name="Character"><path class="f9fe66da-05a1-4f20-9210-73721c4521ec" d="M570.36,105.48c-2.94.67-4.37,4.06-4.65,7.06s.1,6.18-1.16,8.92c-1.42,3.08-4.81,5.36-4.92,8.75-.07,2.07,1.16,4,1.1,6.09-.1,3.4-3.56,6-3.75,9.36-.13,2.45,1.5,4.79,1.11,7.21-.3,1.88-1.77,3.36-2.39,5.16-1.23,3.6,1.24,7.55,4.45,9.57a14.59,14.59,0,0,0,21.25-6.78c1.78-4.32,1.39-9.19,1-13.84q-1.8-21.76-2.68-43.58" transform="translate(-67.94)"/><path class="bbeb712e-1da4-4e0f-a8a5-cb334ff7f7f3" d="M561.82,156.66a3.41,3.41,0,0,0,1.35-1.59,5.79,5.79,0,0,0,.34-2.45,13.47,13.47,0,0,0-.73-3.23,9.31,9.31,0,0,1-.52-4.1c.25-1.56,1.37-2.84,2.38-4.1a8.77,8.77,0,0,0,1.35-2.05,3.31,3.31,0,0,0,.16-2.4c-.52-1.63-2.12-2.83-2.85-4.72a5,5,0,0,1-.16-2.92,11.59,11.59,0,0,1,1-2.61,22.41,22.41,0,0,0,2-4.71c.7-3.17.37-6.2.85-8.69a9.62,9.62,0,0,1,2.53-5.32,5.81,5.81,0,0,1,1.32-1,2.07,2.07,0,0,1,.53-.19,7.69,7.69,0,0,0-1.71,1.28,9.78,9.78,0,0,0-2.31,5.25,32.58,32.58,0,0,0-.28,4,24.63,24.63,0,0,1-.46,4.69,22.46,22.46,0,0,1-2,4.82c-.75,1.57-1.44,3.41-.78,5.13s2.25,2.91,2.86,4.75a3.88,3.88,0,0,1-.19,2.75A9.46,9.46,0,0,1,565,141.5c-1,1.26-2.09,2.46-2.33,3.86a9,9,0,0,0,.46,3.93,13.62,13.62,0,0,1,.66,3.32,5.61,5.61,0,0,1-.45,2.54,3.06,3.06,0,0,1-1,1.26A1.58,1.58,0,0,1,561.82,156.66Z" transform="translate(-67.94)"/><path class="a566133d-e88a-4afd-b7e6-03f65e883c0e" d="M554,180.37l-9,26-37.64,2-6.28,14,39.3,4A14.85,14.85,0,0,0,560,217.64l10.49-29.28Z" transform="translate(-67.94)"/><path class="a566133d-e88a-4afd-b7e6-03f65e883c0e" d="M631.81,425.7s-27.58-87.62-28.17-90.46c-.53-2.58,10-65.63,11.34-82l-37.27,1.39V255l-15.84.88L576.05,435H593.2l-1.7-59.45c10.58,28.39,25.74,57.33,25.74,57.33Z" transform="translate(-67.94)"/><path class="b7d893d7-eaf0-4272-a179-d4a8e0d8af6c" d="M592.2,396.88c0-.54-.21-19.92-.21-19.92-.21,1.16-6.57-16.82-6.42-17.91C585.65,358.48,592.2,396.88,592.2,396.88Z" transform="translate(-67.94)"/><path class="b7d893d7-eaf0-4272-a179-d4a8e0d8af6c" d="M584.85,350.53a3.88,3.88,0,0,0-.11,1.09,27.15,27.15,0,0,0,0,3c0,.63.09,1.31.17,2.05s.19,1.52.36,2.33a41.36,41.36,0,0,0,1.41,5.22c1.24,3.63,2.62,6.8,3.59,9.1.46,1,.86,1.95,1.2,2.71a4.32,4.32,0,0,0,.5,1,3.79,3.79,0,0,0-.3-1c-.23-.66-.58-1.61-1-2.78-.88-2.34-2.2-5.54-3.43-9.13a43.34,43.34,0,0,1-1.43-5.14c-.18-.8-.3-1.57-.41-2.29s-.19-1.4-.24-2c-.12-1.24-.17-2.24-.2-2.94A4.52,4.52,0,0,0,584.85,350.53Z" transform="translate(-67.94)"/><path class="a4aaa590-8ad9-4b54-a5bc-b7e11946bd17" d="M575.73,435.91V434.3l17.57-.77.05,6.65-1.08.07c-4.83.28-24.55,1.1-27.77.13C560.89,439.3,575.73,435.91,575.73,435.91Z" transform="translate(-67.94)"/><path class="f9fe66da-05a1-4f20-9210-73721c4521ec" d="M593.58,439.78a2.29,2.29,0,0,1-.3,0l-.86.06-3.18.14c-2.68.11-6.39.21-10.48.23s-7.81-.05-10.5-.13l-3.17-.13-.87,0-.3,0a1.85,1.85,0,0,1,.3,0h.87l3.18.06c2.68,0,6.39.08,10.48.06s7.81-.09,10.49-.16l3.18-.08h1.16Z" transform="translate(-67.94)"/><path class="f9fe66da-05a1-4f20-9210-73721c4521ec" d="M570,440.34a7.67,7.67,0,0,0-.6-1.51,7.21,7.21,0,0,0-1.09-1.21,2.32,2.32,0,0,1,1.27,1.1A2.39,2.39,0,0,1,570,440.34Z" transform="translate(-67.94)"/><path class="f9fe66da-05a1-4f20-9210-73721c4521ec" d="M575.18,437.71s-.29-.27-.55-.67-.42-.75-.37-.78.29.26.55.66S575.23,437.68,575.18,437.71Z" transform="translate(-67.94)"/><path class="f9fe66da-05a1-4f20-9210-73721c4521ec" d="M576.6,437c0,.05-.32-.14-.62-.41s-.52-.52-.48-.56.32.14.62.41S576.64,436.91,576.6,437Z" transform="translate(-67.94)"/><path class="f9fe66da-05a1-4f20-9210-73721c4521ec" d="M577.49,435.3a2.11,2.11,0,0,1-.92.12,2,2,0,0,1-.91-.09,2.08,2.08,0,0,1,.91-.12A2,2,0,0,1,577.49,435.3Z" transform="translate(-67.94)"/><path class="f9fe66da-05a1-4f20-9210-73721c4521ec" d="M577.79,434.14a1.86,1.86,0,0,1-1,.3,1.89,1.89,0,0,1-1-.14,5.77,5.77,0,0,1,1-.08A5.19,5.19,0,0,1,577.79,434.14Z" transform="translate(-67.94)"/><path class="f9fe66da-05a1-4f20-9210-73721c4521ec" d="M574.59,436.18a3.07,3.07,0,0,1-1.13,0,6.46,6.46,0,0,1-1.19-.26,3.23,3.23,0,0,1-.69-.28.63.63,0,0,1-.28-.35.44.44,0,0,1,.17-.45,2.08,2.08,0,0,1,2.92,1.35.76.76,0,0,1,0,.3,3.22,3.22,0,0,0-.52-1,2.06,2.06,0,0,0-1-.62,1.78,1.78,0,0,0-1.34.1c-.17.13-.1.34.09.46a3.61,3.61,0,0,0,.64.27,8.41,8.41,0,0,0,1.15.29C574.16,436.15,574.59,436.15,574.59,436.18Z" transform="translate(-67.94)"/><path class="f9fe66da-05a1-4f20-9210-73721c4521ec" d="M574.3,436.24a1.06,1.06,0,0,1-.14-.78,1.86,1.86,0,0,1,.31-.82,1.14,1.14,0,0,1,.93-.58.46.46,0,0,1,.35.52,1.19,1.19,0,0,1-.19.5,4.13,4.13,0,0,1-.53.69,1.64,1.64,0,0,1-.64.45s.22-.2.53-.56a3.88,3.88,0,0,0,.47-.67c.15-.24.26-.67,0-.72s-.56.26-.73.48a1.83,1.83,0,0,0-.32.73A3.52,3.52,0,0,0,574.3,436.24Z" transform="translate(-67.94)"/><path class="f9fe66da-05a1-4f20-9210-73721c4521ec" d="M593.21,435s-.5,0-1.29.05a5.54,5.54,0,0,0-4.57,3.67c-.26.75-.28,1.26-.32,1.25s0-.13,0-.35a4.48,4.48,0,0,1,.18-.95,5.47,5.47,0,0,1,1.76-2.61,5.39,5.39,0,0,1,2.93-1.15,4.19,4.19,0,0,1,1,0A1.26,1.26,0,0,1,593.21,435Z" transform="translate(-67.94)"/><path class="f9fe66da-05a1-4f20-9210-73721c4521ec" d="M584.8,438.38a9.81,9.81,0,0,1-2.56.25,9.43,9.43,0,0,1-2.55-.22c0-.06,1.14,0,2.55,0S584.79,438.32,584.8,438.38Z" transform="translate(-67.94)"/><path class="f9fe66da-05a1-4f20-9210-73721c4521ec" d="M588.22,438.35s-.09.24-.21.5-.18.5-.24.49-.09-.27.05-.58S588.18,438.3,588.22,438.35Z" transform="translate(-67.94)"/><path class="f9fe66da-05a1-4f20-9210-73721c4521ec" d="M589.51,436.74s-.07.22-.25.4-.36.3-.41.26.07-.22.25-.41S589.46,436.69,589.51,436.74Z" transform="translate(-67.94)"/><path class="f9fe66da-05a1-4f20-9210-73721c4521ec" d="M591.35,436c0,.06-.24.06-.5.15s-.44.23-.49.19.1-.28.42-.39S591.37,435.94,591.35,436Z" transform="translate(-67.94)"/><path class="f9fe66da-05a1-4f20-9210-73721c4521ec" d="M592.66,435.64c0,.06-.07.15-.22.2s-.28.06-.3,0,.08-.15.22-.2S592.64,435.59,592.66,435.64Z" transform="translate(-67.94)"/><path class="ed578661-ffcc-45fb-a207-57a8f540988a" d="M616.89,434.36l-.66-1.47L631.94,425l2.77,6-1,.51c-4.29,2.23-21.94,11.05-25.28,11.49C604.74,443.53,616.89,434.36,616.89,434.36Z" transform="translate(-67.94)"/><path class="f9fe66da-05a1-4f20-9210-73721c4521ec" d="M634.77,430.57l-.26.16-.77.4-2.84,1.44c-2.4,1.19-5.74,2.8-9.47,4.5s-7.15,3.15-9.63,4.18l-2.95,1.19-.8.31a1.14,1.14,0,0,1-.29.09l.27-.13.79-.35,2.92-1.25c2.47-1.06,5.87-2.54,9.6-4.24s7.08-3.28,9.5-4.44l2.86-1.37.79-.37Z" transform="translate(-67.94)"/><path class="f9fe66da-05a1-4f20-9210-73721c4521ec" d="M613.52,440.74a7.38,7.38,0,0,0-1.17-1.14,6.94,6.94,0,0,0-1.49-.66,2.81,2.81,0,0,1,2.66,1.8Z" transform="translate(-67.94)"/><path class="f9fe66da-05a1-4f20-9210-73721c4521ec" d="M617.13,436.22s-.38-.12-.78-.38-.69-.51-.66-.56.38.12.78.38S617.16,436.17,617.13,436.22Z" transform="translate(-67.94)"/><path class="f9fe66da-05a1-4f20-9210-73721c4521ec" d="M618.11,435c0,.05-.34,0-.73-.12s-.68-.27-.67-.33a1.49,1.49,0,0,1,.74.12C617.83,434.76,618.13,434.9,618.11,435Z" transform="translate(-67.94)"/><path class="f9fe66da-05a1-4f20-9210-73721c4521ec" d="M618.25,433.08c0,.06-.33.27-.79.49a2.11,2.11,0,0,1-.87.29c0-.06.33-.27.78-.49A2.18,2.18,0,0,1,618.25,433.08Z" transform="translate(-67.94)"/><path class="f9fe66da-05a1-4f20-9210-73721c4521ec" d="M618.05,431.9s-.29.4-.81.69a1.74,1.74,0,0,1-1,.3,5.28,5.28,0,0,1,.91-.49C617.64,432.13,618,431.85,618.05,431.9Z" transform="translate(-67.94)"/><path class="f9fe66da-05a1-4f20-9210-73721c4521ec" d="M616,435.08a3.24,3.24,0,0,1-1,.46,7.85,7.85,0,0,1-1.2.25,3,3,0,0,1-.74,0,.59.59,0,0,1-.4-.2.44.44,0,0,1,0-.48,2.06,2.06,0,0,1,2.57-.5,2,2,0,0,1,.64.53c.12.16.17.26.16.27a3,3,0,0,0-.87-.67,2,2,0,0,0-1.13-.17,1.75,1.75,0,0,0-1.18.64c-.11.19,0,.35.27.38a4,4,0,0,0,.69,0,7.9,7.9,0,0,0,1.18-.21C615.56,435.22,616,435.05,616,435.08Z" transform="translate(-67.94)"/><path class="f9fe66da-05a1-4f20-9210-73721c4521ec" d="M615.72,435.25a1.11,1.11,0,0,1-.44-.66,1.88,1.88,0,0,1-.06-.87,1.13,1.13,0,0,1,.62-.91c.25-.08.83.43.87.62s-.29.09-.31.25a3.48,3.48,0,0,1-.2.83,1.56,1.56,0,0,1-.4.68s.12-.27.26-.72a5.12,5.12,0,0,0,.15-.81c0-.28,0-.71-.32-.64s-.41.46-.48.74a1.73,1.73,0,0,0,0,.79A4.36,4.36,0,0,0,615.72,435.25Z" transform="translate(-67.94)"/><path class="f9fe66da-05a1-4f20-9210-73721c4521ec" d="M632.47,426.36s-.48.17-1.16.58a5.58,5.58,0,0,0-2.09,2.22,5.63,5.63,0,0,0-.57,3c.06.8.25,1.26.21,1.28a1.27,1.27,0,0,1-.15-.32,5.18,5.18,0,0,1-.21-.94,5.29,5.29,0,0,1,2.73-5.36,4.75,4.75,0,0,1,.89-.38A1.23,1.23,0,0,1,632.47,426.36Z" transform="translate(-67.94)"/><path class="f9fe66da-05a1-4f20-9210-73721c4521ec" d="M626.18,432.9a14.28,14.28,0,0,1-4.65,2.12c0-.06,1.05-.46,2.33-1S626.15,432.85,626.18,432.9Z" transform="translate(-67.94)"/><path class="f9fe66da-05a1-4f20-9210-73721c4521ec" d="M629.29,431.47c.05,0,0,.25,0,.54s0,.53,0,.55-.2-.22-.2-.55S629.24,431.44,629.29,431.47Z" transform="translate(-67.94)"/><path class="f9fe66da-05a1-4f20-9210-73721c4521ec" d="M629.8,429.47c.05,0,0,.23-.06.47s-.21.42-.26.4,0-.23.06-.47S629.74,429.45,629.8,429.47Z" transform="translate(-67.94)"/><path class="f9fe66da-05a1-4f20-9210-73721c4521ec" d="M631.18,428c0,.06-.2.15-.4.34s-.31.39-.36.37,0-.3.22-.53S631.17,428,631.18,428Z" transform="translate(-67.94)"/><path class="f9fe66da-05a1-4f20-9210-73721c4521ec" d="M632.23,427.18s0,.16-.12.27-.23.17-.27.13,0-.16.12-.27S632.19,427.14,632.23,427.18Z" transform="translate(-67.94)"/><path class="f7fbdbe0-181b-40a6-b973-6cb22627500a" d="M612.56,223.64l-2.92-35.7,15,.27s.69-5.27-1.52-16.81c-1.36-7.08-6.07-11.42-11.36-14v-.1l-.46-.12a42.83,42.83,0,0,0-13.76-3.59l-18.45.21S565,152,557.23,162.09c-3,3.87-12.31,30.36-12.31,30.36l22.15,10.66L565,188.42s.42,10.65,1.78,14c.75,1.88,3,7.72,3,7.72l-.29,17.62Z" transform="translate(-67.94)"/><polygon class="bafced02-37f2-4274-8fa7-bd7749073bd3" points="534.45 182.76 531.71 194.42 557.54 194.42 555.84 174.86 534.45 182.76"/><path class="f9fe66da-05a1-4f20-9210-73721c4521ec" d="M625.48,194.42a20.7,20.7,0,0,0-3.42-.34c-2.12-.12-5-.23-8.28-.21s-6.17.16-8.29.32a19.6,19.6,0,0,0-3.41.42,21.66,21.66,0,0,0,3.44,0c2.11-.07,5-.15,8.26-.16s6.15,0,8.27.05A21.65,21.65,0,0,0,625.48,194.42Z" transform="translate(-67.94)"/><path class="f9fe66da-05a1-4f20-9210-73721c4521ec" d="M601.27,174.77a15.57,15.57,0,0,0-.08,3c0,1.83.08,4.35.19,7.14s.24,5.32.36,7.14a14.9,14.9,0,0,0,.32,3,15.64,15.64,0,0,0,.08-3c0-1.83-.08-4.36-.19-7.15s-.24-5.31-.36-7.14A14.71,14.71,0,0,0,601.27,174.77Z" transform="translate(-67.94)"/><g class="abc010bf-8094-4f79-96f4-db56590a3379"><path d="M577.77,184.87s5.74,42.57,21.88,41.44c0,0,7.27-.08,9.6-4.91v-1.9Z" transform="translate(-67.94)"/></g><g class="abc010bf-8094-4f79-96f4-db56590a3379"><polygon points="533.33 177.28 530.24 198.15 532.24 201.81 535.54 194.65 534.14 194.61 533.33 177.28"/></g><path class="f9fe66da-05a1-4f20-9210-73721c4521ec" d="M569.69,210.16a4,4,0,0,1-.44-1c-.25-.65-.58-1.6-1-2.79a86.11,86.11,0,0,1-2.47-9.45,67,67,0,0,1-1.22-9.69c-.06-1.25-.08-2.26-.06-3a4,4,0,0,1,.07-1.08c.08,0,.14,1.54.35,4a89,89,0,0,0,1.37,9.61c.74,3.72,1.63,7.05,2.31,9.44.32,1.11.59,2.06.81,2.84A4.89,4.89,0,0,1,569.69,210.16Z" transform="translate(-67.94)"/><path class="f9fe66da-05a1-4f20-9210-73721c4521ec" d="M576.21,222.39c-.14,0-.54-.87-.89-2a4.8,4.8,0,0,1-.39-2.2,5.22,5.22,0,0,1,.89,2.05A5,5,0,0,1,576.21,222.39Z" transform="translate(-67.94)"/><path class="f9fe66da-05a1-4f20-9210-73721c4521ec" d="M578.44,222.23a9.2,9.2,0,0,1-.09-6.24,20.81,20.81,0,0,1,0,3.12A20.56,20.56,0,0,1,578.44,222.23Z" transform="translate(-67.94)"/><path class="f9fe66da-05a1-4f20-9210-73721c4521ec" d="M567.52,203.6c-.07.12-5.22-2.32-11.51-5.46s-11.34-5.8-11.28-5.93,5.22,2.32,11.51,5.46S567.58,203.47,567.52,203.6Z" transform="translate(-67.94)"/><path class="a566133d-e88a-4afd-b7e6-03f65e883c0e" d="M576.6,157.25c.11-5.06.14-10.38.14-10.38s-6.49-1.25-7.62-9.79c-1.08-8.14,1.94-27.25,1.94-27.25h0c9.48-3.58,19.33-.33,25.82,7.35h0l-1.61,41.07c-.19,4.77-4.44,8.41-9.54,8.17h0C580.57,166.17,576.49,162.07,576.6,157.25Z" transform="translate(-67.94)"/><path class="f9fe66da-05a1-4f20-9210-73721c4521ec" d="M570.56,125.1a1.1,1.1,0,0,0,1,1.13,1.05,1.05,0,0,0,1.15-1,1.09,1.09,0,0,0-1-1.12A1,1,0,0,0,570.56,125.1Z" transform="translate(-67.94)"/><path class="f9fe66da-05a1-4f20-9210-73721c4521ec" d="M570.16,123.67c.13.14,1-.45,2.15-.41s2,.64,2.14.5-.06-.32-.43-.61a3,3,0,0,0-1.72-.57,2.81,2.81,0,0,0-1.71.5C570.22,123.35,570.09,123.6,570.16,123.67Z" transform="translate(-67.94)"/><path class="f9fe66da-05a1-4f20-9210-73721c4521ec" d="M582.47,125.84a1.09,1.09,0,0,0,1,1.13,1,1,0,0,0,1.15-1,1.08,1.08,0,0,0-1-1.12A1,1,0,0,0,582.47,125.84Z" transform="translate(-67.94)"/><path class="f9fe66da-05a1-4f20-9210-73721c4521ec" d="M582.39,124.41c.13.15,1-.44,2.15-.41s2,.64,2.15.5-.07-.32-.44-.6a2.87,2.87,0,0,0-1.71-.58,2.91,2.91,0,0,0-1.72.5C582.46,124.09,582.33,124.34,582.39,124.41Z" transform="translate(-67.94)"/><path class="f9fe66da-05a1-4f20-9210-73721c4521ec" d="M577.91,133a7.56,7.56,0,0,0-1.9-.39c-.3,0-.58-.11-.62-.31a1.46,1.46,0,0,1,.22-.89l.94-2.25a39.1,39.1,0,0,0,2.15-5.92,39.62,39.62,0,0,0-2.62,5.73c-.31.79-.62,1.55-.91,2.27a1.75,1.75,0,0,0-.18,1.17.75.75,0,0,0,.48.46,2.05,2.05,0,0,0,.51.08A7.63,7.63,0,0,0,577.91,133Z" transform="translate(-67.94)"/><path class="b7d893d7-eaf0-4272-a179-d4a8e0d8af6c" d="M576.74,146.87a21.66,21.66,0,0,0,11.46-2.75s-2.91,5.77-11.4,4.76Z" transform="translate(-67.94)"/><path class="f9fe66da-05a1-4f20-9210-73721c4521ec" d="M586.15,121c-.24.37-1.14.21-2.14,0s-1.88-.38-2-.81.93-1,2.27-.73S586.39,120.68,586.15,121Z" transform="translate(-67.94)"/><path class="f9fe66da-05a1-4f20-9210-73721c4521ec" d="M574.48,119.3c-.09.43-1.05.59-2.15.64s-2.07,0-2.2-.44.8-1.06,2.13-1.12S574.57,118.89,574.48,119.3Z" transform="translate(-67.94)"/><path class="b7d893d7-eaf0-4272-a179-d4a8e0d8af6c" d="M577.93,135.81a.58.58,0,0,0-.65.3.67.67,0,1,0,1.17,0,.67.67,0,0,0-.77-.33" transform="translate(-67.94)"/><path class="f9fe66da-05a1-4f20-9210-73721c4521ec" d="M578.2,135.93c0-.05-.19-.34-.7-.23a.9.9,0,0,0-.64.63,1,1,0,0,0,.35,1.06,1,1,0,0,0,1.13,0,.84.84,0,0,0,.36-.83c-.1-.53-.49-.61-.51-.54s.14.25.11.56a.47.47,0,0,1-.24.37.51.51,0,0,1-.51,0,.53.53,0,0,1-.18-.49.49.49,0,0,1,.27-.37C577.92,135.92,578.17,136,578.2,135.93Z" transform="translate(-67.94)"/><path class="f9fe66da-05a1-4f20-9210-73721c4521ec" d="M593,127.21c-1,2.34-3.48,4.15-3.14,6.68.22,1.63,1.27,3.15,1.07,4.79-.26,2-2.39,3.48-2.7,5.53-.37,2.51,2.08,4.46,3.05,6.8,1.43,3.42-.39,7.26-.44,11a11.74,11.74,0,0,0,10.4,11.42c2.28.19,4.85-.5,6-2.46,1-1.62.78-3.68,1.36-5.47.88-2.68,3.43-4.64,4-7.4,1-5-5.1-9.2-4.7-14.32.17-2.19,1.52-4.09,2.09-6.21a9.12,9.12,0,0,0-1.78-8.09c-1.51-1.79-3.69-3-5-4.92-1.45-2.21-1.5-5-2-7.61a19.18,19.18,0,0,0-30.46-11.23s-1.45,6.59,5.32,7.7,9.9-.17,10.66,2.54a7.16,7.16,0,0,0,2,6.19C591.49,125.13,594.12,124.49,593,127.21Z" transform="translate(-67.94)"/><path class="bbeb712e-1da4-4e0f-a8a5-cb334ff7f7f3" d="M603.75,172.92a2.39,2.39,0,0,1-.62-.06,9.78,9.78,0,0,1-1.72-.47,12.21,12.21,0,0,1-5.24-3.87,13.86,13.86,0,0,1-2.22-4,15.85,15.85,0,0,1-.91-5.13,21.19,21.19,0,0,1,.72-5.71,24.45,24.45,0,0,1,1-2.89,29.55,29.55,0,0,0,1.09-2.87,5.34,5.34,0,0,0,0-2.94,16.3,16.3,0,0,0-1.13-2.74,18,18,0,0,1-1.17-2.71,5.85,5.85,0,0,1-.21-2.87c.4-1.88,1.54-3.28,2.22-4.71a8.91,8.91,0,0,0,.9-4.26,10.05,10.05,0,0,0-2.23-5.9,17.59,17.59,0,0,0-1.69-1.65,6.84,6.84,0,0,1,1.85,1.52,10,10,0,0,1,2.44,6,9.24,9.24,0,0,1-.88,4.46c-.69,1.48-1.8,2.89-2.14,4.61s.47,3.53,1.36,5.27a15.58,15.58,0,0,1,1.18,2.83,5.89,5.89,0,0,1,0,3.2A31.35,31.35,0,0,1,595.2,151a23.52,23.52,0,0,0-1,2.83,20.61,20.61,0,0,0-.73,5.57,14.46,14.46,0,0,0,2.94,8.88,12.28,12.28,0,0,0,5,3.91C602.9,172.77,603.76,172.86,603.75,172.92Z" transform="translate(-67.94)"/><path class="bbeb712e-1da4-4e0f-a8a5-cb334ff7f7f3" d="M602.75,122.46a7.07,7.07,0,0,1-1.49.22,15.51,15.51,0,0,1-4.12-.11,7.85,7.85,0,0,1-5.2-3.15,17,17,0,0,1-1.36-3.36,5.58,5.58,0,0,0-2.28-2.81c-2.19-1.39-4.76-1.56-7-1.83a12.21,12.21,0,0,1-5.83-1.82,5.77,5.77,0,0,1-2.39-3.33,3.35,3.35,0,0,1-.07-1.13c0-.26.06-.39.08-.39a7.08,7.08,0,0,0,.19,1.47,5.72,5.72,0,0,0,2.4,3.08,12.09,12.09,0,0,0,5.67,1.64c2.24.26,4.9.39,7.24,1.87a6.08,6.08,0,0,1,2.48,3.07,16.73,16.73,0,0,0,1.29,3.28,7.55,7.55,0,0,0,4.86,3,17.26,17.26,0,0,0,4,.27A10.11,10.11,0,0,1,602.75,122.46Z" transform="translate(-67.94)"/><path class="bbeb712e-1da4-4e0f-a8a5-cb334ff7f7f3" d="M600.27,114.32a3.33,3.33,0,0,1-1.17.17,7.13,7.13,0,0,1-5-2,9.18,9.18,0,0,1-1.55-2.07c-.9-1.52-1.77-3.39-3.64-4.17a12,12,0,0,0-5.6-.49,17.18,17.18,0,0,1-4.78,0,6,6,0,0,1-3-1.32,3.32,3.32,0,0,1-.58-.66q-.18-.26-.15-.27s.28.32.86.77a6.3,6.3,0,0,0,2.89,1.12,18.14,18.14,0,0,0,4.68-.08,12,12,0,0,1,5.85.5,5.75,5.75,0,0,1,2.39,2,25.76,25.76,0,0,1,1.45,2.42,9.52,9.52,0,0,0,1.45,2,7,7,0,0,0,1.71,1.27,7.42,7.42,0,0,0,3,.83C599.85,114.33,600.26,114.27,600.27,114.32Z" transform="translate(-67.94)"/><path class="bbeb712e-1da4-4e0f-a8a5-cb334ff7f7f3" d="M606.73,170.76c-.05,0,.27-.66.64-1.9a17.2,17.2,0,0,0,.66-5.36,16.32,16.32,0,0,0-2.13-7.63c-.73-1.31-1.84-2.48-2.75-3.92a7,7,0,0,1-1-2.41,5.39,5.39,0,0,1,.22-2.7c.56-1.73,1.56-3.18,1.78-4.77s-.54-3-1.3-4.33a21.3,21.3,0,0,1-1.07-2,7.32,7.32,0,0,1-.57-2.09,18.12,18.12,0,0,1,.12-3.81,10.11,10.11,0,0,0-.48-5.32,4.84,4.84,0,0,0-1.18-1.56s.05,0,.12.06a1.22,1.22,0,0,1,.32.23,3.57,3.57,0,0,1,.93,1.19,9.88,9.88,0,0,1,.65,5.43,19.17,19.17,0,0,0-.05,3.73,9.6,9.6,0,0,0,1.62,3.88,13.3,13.3,0,0,1,1.09,2.13,5,5,0,0,1,.3,2.52c-.24,1.75-1.27,3.23-1.79,4.86a5,5,0,0,0-.21,2.45,6.66,6.66,0,0,0,.94,2.23c.85,1.39,2,2.58,2.73,3.95a16.5,16.5,0,0,1,2.08,7.87,16.18,16.18,0,0,1-.84,5.43,10.43,10.43,0,0,1-.58,1.38A1.84,1.84,0,0,1,606.73,170.76Z" transform="translate(-67.94)"/><path class="f9fe66da-05a1-4f20-9210-73721c4521ec" d="M566,357.09s-6.74-63.84-7.13-87.43,10.61-46.87,10.61-46.87L612.56,221s8.52,23.93,8.67,34c.3,19.54-5.19,38.83-4.56,54.33l1.44,47.8" transform="translate(-67.94)"/><path class="a566133d-e88a-4afd-b7e6-03f65e883c0e" d="M611.21,194.46l-8.34.2a13.49,13.49,0,0,1-1.88,4.73c-7-12.1-12.37-28.3-13.71-34.81.2-.65.43-1.37.72-2.17a9.24,9.24,0,0,0-.11-3.66c-.24-1.45-.64-3.4-.76-4.3-.37-2.76-.82-3.19-1.78-2.88-1.3.43.54,7.73-.53,7.89-.58.08-1.28-2.42-1.48-4.47s-1.14-8.37-1.81-8.79c-1-.62-1.87.36-1.61,2.4s.57,8.24-.51,8.33-2-10.39-2-10.39.17-2.28-1.09-2.23c-2.26.1-.49,11.14-.3,12.19.14.72-1,.86-1.14.07s-.66-10.47-3-10.39c-1.78,0,1.37,9.09.37,11.19s-1.68-7.12-3.37-7c-.63.05-1.1.17.06,5.38a118.2,118.2,0,0,0,4,12.21c2.68,14.45,14.44,60.68,32.87,52.22,10.32-4.74,14.5-25.72,14.5-25.72Z" transform="translate(-67.94)"/><path class="b7d893d7-eaf0-4272-a179-d4a8e0d8af6c" d="M575.66,157.2a.49.49,0,0,0,.24,0,.53.53,0,0,0,.37-.58c0-.62-.12-1.52-.26-2.69a37.55,37.55,0,0,1-.46-4.26c0-.84,0-1.74.05-2.69a9.9,9.9,0,0,1,.15-1.44c.08-.45.38-1,.73-.91h.06c.35,0,.63.26.74.68a3.92,3.92,0,0,1,.14,1.34v0h0a78,78,0,0,0,1.07,8.35c.08.37.16.75.28,1.13a4.3,4.3,0,0,0,.2.57,3.18,3.18,0,0,0,.17.3.55.55,0,0,0,.42.26.74.74,0,0,0,.63-.53,2.86,2.86,0,0,0,.19-.61,10.19,10.19,0,0,0,.16-1.22,36.44,36.44,0,0,0-.07-5,11.3,11.3,0,0,1-.1-2.51,1.4,1.4,0,0,1,.49-.93.53.53,0,0,1,.43-.05.82.82,0,0,1,.24.1.32.32,0,0,1,.11.15,12.75,12.75,0,0,1,.69,2.51c.18.88.33,1.79.47,2.7s.27,1.83.38,2.76a20.36,20.36,0,0,0,.46,2.85,11,11,0,0,0,.45,1.41,2.65,2.65,0,0,0,.42.71.59.59,0,0,0,.59.22.62.62,0,0,0,.41-.45,5,5,0,0,0,.11-1.56c0-.5-.06-1-.11-1.48-.07-.84-.15-1.67-.18-2.49a9.68,9.68,0,0,1,0-1.21,2,2,0,0,1,.13-.52.49.49,0,0,1,.09-.15l0,0,.13,0c.66-.27.88.65,1.06,1.39s.25,1.58.41,2.37c.26,1.57.6,3.14.77,4.64a5.53,5.53,0,0,1-.08,2.16c-.24.72-.48,1.43-.71,2.14l0,.07,0,.06a115.17,115.17,0,0,0,4.47,14.46c1.58,4.27,3.17,8,4.56,11s2.65,5.35,3.51,6.93l1,1.79a3.36,3.36,0,0,0,.39.6,4,4,0,0,0-.31-.64l-1-1.83c-.82-1.61-2-4-3.36-7s-2.9-6.73-4.44-11a119.4,119.4,0,0,1-4.38-14.42v.14c.23-.7.46-1.41.7-2.12a5.72,5.72,0,0,0,.12-2.39c-.18-1.57-.51-3.09-.77-4.67-.15-.78-.25-1.58-.41-2.4A4.4,4.4,0,0,0,587,152a1.18,1.18,0,0,0-.55-.56,1.27,1.27,0,0,0-.79,0l-.16,0a.65.65,0,0,0-.23.13.88.88,0,0,0-.25.35,2.26,2.26,0,0,0-.17.68,9.46,9.46,0,0,0,0,1.3c0,.84.12,1.68.19,2.52,0,.49.08,1,.1,1.45a4.86,4.86,0,0,1-.07,1.35c0,.1-.08.08,0,.13h0s0,0,0,0h0s0,0,0,0,0,0,0,0l-.06-.06a2,2,0,0,1-.3-.54,9.83,9.83,0,0,1-.43-1.33,18.59,18.59,0,0,1-.45-2.77q-.16-1.41-.39-2.79c-.14-.92-.3-1.82-.48-2.72a12.18,12.18,0,0,0-.76-2.67.85.85,0,0,0-.31-.35,1.73,1.73,0,0,0-.37-.16,1.11,1.11,0,0,0-.85.12,1.87,1.87,0,0,0-.74,1.3,4.85,4.85,0,0,0,0,1.37c0,.43.1.85.13,1.27a37,37,0,0,1,.09,4.92,8.54,8.54,0,0,1-.15,1.16,2.23,2.23,0,0,1-.15.52.61.61,0,0,1-.11.18c0,.09-.07,0-.06.12,0-.1,0,0,0-.13a2,2,0,0,1-.12-.21c-.07-.16-.13-.34-.19-.51-.11-.36-.19-.73-.27-1.09a79.46,79.46,0,0,1-1.13-8.28v0a4.35,4.35,0,0,0-.17-1.49,1.4,1.4,0,0,0-.39-.66,1,1,0,0,0-.74-.28h.06a.87.87,0,0,0-.87.41,2.21,2.21,0,0,0-.3.78,10.09,10.09,0,0,0-.14,1.5c0,1,0,1.87,0,2.72a34.89,34.89,0,0,0,.55,4.28c.17,1.16.3,2.06.36,2.67a.47.47,0,0,1-.29.52C575.74,157.18,575.65,157.19,575.66,157.2Z" transform="translate(-67.94)"/><path class="a566133d-e88a-4afd-b7e6-03f65e883c0e" d="M510.53,208.23a21.41,21.41,0,0,0-5.79.67c-5.17,1.36-14.08,6.76-14.45,13.43h6.48s-3.63,7.72-2.57,7c2.77-1.86,8.27-7.45,8.27-7.45Z" transform="translate(-67.94)"/><path class="f9fe66da-05a1-4f20-9210-73721c4521ec" d="M598.86,92c-.15,0-.73-5.34-1.31-12s-.94-12-.8-12,.73,5.34,1.31,12S599,92,598.86,92Z" transform="translate(-67.94)"/><path class="f9fe66da-05a1-4f20-9210-73721c4521ec" d="M627.27,68.41c.11.08-4.26,6.43-9.77,14.18s-10.08,14-10.2,13.88,4.26-6.43,9.77-14.18S627.15,68.33,627.27,68.41Z" transform="translate(-67.94)"/><path class="f9fe66da-05a1-4f20-9210-73721c4521ec" d="M639.07,97.19c0,.14-5.08,1.31-11.4,2.61s-11.48,2.24-11.51,2.1,5.07-1.31,11.4-2.61S639,97.05,639.07,97.19Z" transform="translate(-67.94)"/><polygon class="b87c5401-60be-4ade-9c1c-1d300f18b4b1" points="189.85 141.71 176.97 132.84 179.21 117.37 194.34 110.75 207.23 119.62 204.98 135.09 189.85 141.71"/><polygon class="f9c7b8ae-e55f-4c47-968f-cd9343cfc45d" points="410.37 186.24 397.48 177.38 399.73 161.9 414.86 155.29 427.74 164.15 425.5 179.63 410.37 186.24"/><polygon class="ab1982ac-6d4d-4a62-afa5-c628d7a20699" points="188.96 101.34 168.54 87.3 172.1 62.77 196.08 52.29 216.5 66.33 212.94 90.86 188.96 101.34"/><polygon class="b25a2e13-986b-44c4-b657-dc865dff8653" points="638.83 206.35 641.67 221.73 629.14 231.09 613.76 225.06 610.92 209.69 623.45 200.33 638.83 206.35"/><polygon class="f3467e1d-9554-4ab7-8ad5-df43a3e55dd9" points="610.91 235.53 615.42 259.89 595.56 274.72 571.2 265.18 566.69 240.81 586.55 225.98 610.91 235.53"/><polygon class="fddb845f-528b-4a1a-bb36-b9b6cbe077cb" points="38.53 334.28 18.11 320.24 21.67 295.71 45.65 285.23 66.06 299.28 62.51 323.8 38.53 334.28"/><polygon class="afa68c89-7e82-4ab2-a01b-bff1de9728a0" points="64.28 378.96 52.74 371.03 54.76 357.18 68.3 351.26 79.83 359.2 77.81 373.05 64.28 378.96"/><polygon class="eb1070af-9d42-4836-b7c8-c76eda2accd2" points="17.26 412.81 2.16 402.43 4.79 384.28 22.53 376.53 37.63 386.92 35 405.06 17.26 412.81"/></g><g id="ba835d59-1383-4094-b6f3-0c5c837774b8" data-name="Folder"><path class="f471a9ce-b9b0-4f42-86bb-267df7816cd8" d="M299,234.54,263.6,416.34,259,440.14,495,439c10.6-.05,20-9.46,23.39-23.44l41.86-171.63c2.59-10.61-3.09-21.65-11.13-21.64l-238.92.25C305,222.53,300.34,227.45,299,234.54Z" transform="translate(-67.94)"/><g class="e03b3fdb-9b2d-46a4-b37e-40faea6122c6"><path d="M299,234.54,263.6,416.34,259,440.14,495,439c10.6-.05,20-9.46,23.39-23.44l41.86-171.63c2.59-10.61-3.09-21.65-11.13-21.64l-238.92.25C305,222.53,300.34,227.45,299,234.54Z" transform="translate(-67.94)"/></g><path class="b05396c6-49c9-45bb-8fa5-7dd2f5b30c09" d="M472.39,404l-25-201.41c-1-8.25-7.59-14.41-15.36-14.38l-54.8.17a15,15,0,0,0-10.83,4.8l-26,27.67L188,221.67c-9.31.05-16.47,8.87-15.24,18.77l23.21,186.15c1,8.24,7.59,14.39,15.34,14.38l265.65-.53c29.58.61,32.41-8.12,32.41-8.12C475.41,439.83,472.39,404.05,472.39,404Z" transform="translate(-67.94)"/><g class="e03b3fdb-9b2d-46a4-b37e-40faea6122c6"><polygon class="aeb20a71-7452-4e3c-aa7f-069027234ccd" points="289.9 363.72 280.94 373.34 211.94 311.26 220.9 301.64 289.9 363.72"/><polygon class="aeb20a71-7452-4e3c-aa7f-069027234ccd" points="277.19 299.51 287.09 308.42 224.65 375.47 214.75 366.56 277.19 299.51"/></g></g><g id="ea477bc4-a974-4ed5-b2a1-549ec58412ce" data-name="Speech Bubble"><path class="ab51d496-4edd-4196-b5c7-a517c24410a1" d="M510.32,103.78a1.85,1.85,0,0,1-1.13-1.63l-.4-9.28a1.86,1.86,0,0,1,2.29-1.9,5.82,5.82,0,0,0,4.52-.89,5.21,5.21,0,0,0,2.33-3.42,5.33,5.33,0,0,0-1.12-4,6,6,0,0,0-3.94-2.37,7,7,0,0,0-7.1,5,1.87,1.87,0,0,1-3.6-1,10.76,10.76,0,0,1,11.13-7.77,9.66,9.66,0,0,1,6.49,3.83,9.13,9.13,0,0,1,1.83,6.87,9,9,0,0,1-4,5.92,9.72,9.72,0,0,1-5.06,1.65l.31,7.16a1.87,1.87,0,0,1-2.6,1.79Z" transform="translate(-67.94)"/><path class="f2ccc2d6-00ab-447a-9707-c65f9f81829b" d="M513.06,107.58a1.53,1.53,0,1,1-1.63-1.42A1.52,1.52,0,0,1,513.06,107.58Z" transform="translate(-67.94)"/><path class="f9fe66da-05a1-4f20-9210-73721c4521ec" d="M478.19,90.69a4.68,4.68,0,0,0,.09-.6c0-.44.11-1,.19-1.79a21.67,21.67,0,0,1,.49-2.88c.13-.56.2-1.18.4-1.81s.4-1.31.62-2a34.49,34.49,0,0,1,5-9.53,33.5,33.5,0,0,1,10.51-9.14,33,33,0,0,1,7.41-3.06,33.55,33.55,0,0,1,8.55-1.12A33.16,33.16,0,0,1,516,59c.77.08,1.53.28,2.3.41a17.12,17.12,0,0,1,2.3.56A32,32,0,0,1,529.49,64a33.44,33.44,0,0,1,13.22,16.6,32.74,32.74,0,0,1,2,11.41,32.16,32.16,0,0,1-2.09,11.74l-.45,1.14-.06.15.06.15c2.51,5.77,5,11.44,7.35,16.93l.42-.48-15-5.75-.18-.07-.15.14a33.49,33.49,0,0,1-14.14,8.16,33.31,33.31,0,0,1-27-4.19,34.17,34.17,0,0,1-8.43-7.85,33.21,33.21,0,0,1-6.4-15.34c-.12-1-.22-1.84-.31-2.6s0-1.38-.05-1.91,0-.88,0-1.17a.2.2,0,1,0-.06,0c0,.29,0,.68,0,1.17s0,1.17,0,1.93.17,1.63.27,2.62a35.77,35.77,0,0,0,1.71,7.06,36.61,36.61,0,0,0,4.58,8.5,34.47,34.47,0,0,0,8.49,8,33.75,33.75,0,0,0,27.41,4.38A34,34,0,0,0,535,116.48l-.33.07,15,5.78.75.29-.33-.77c-2.38-5.49-4.84-11.15-7.34-16.93v.29l.46-1.17a32.7,32.7,0,0,0,2.14-12,33.45,33.45,0,0,0-2-11.66,34,34,0,0,0-13.51-16.91,32.3,32.3,0,0,0-9.12-4.1,15.89,15.89,0,0,0-2.34-.55c-.78-.14-1.55-.34-2.33-.41a34.39,34.39,0,0,0-4.61-.26,33.56,33.56,0,0,0-8.68,1.18,34.19,34.19,0,0,0-7.51,3.14,33.57,33.57,0,0,0-10.57,9.35,34.2,34.2,0,0,0-4.93,9.68c-.21.72-.41,1.41-.59,2a17.6,17.6,0,0,0-.38,1.83,19,19,0,0,0-.42,2.9c-.06.77-.1,1.36-.13,1.8A2.54,2.54,0,0,0,478.19,90.69Z" transform="translate(-67.94)"/></g></svg>