<svg width="82" height="58" viewBox="0 0 82 58" fill="none" xmlns="http://www.w3.org/2000/svg">
<g clip-path="url(#clip0_518_25)">
<path d="M13.4156 11.2844H32.9147C33.5543 11.2837 34.1829 11.453 34.7373 11.7753C35.2917 12.0976 35.7524 12.5616 36.0731 13.1206L45.8024 30.2011C46.1214 30.7613 46.2893 31.3962 46.2893 32.0425C46.2893 32.6887 46.1214 33.3237 45.8024 33.8839L36.0325 50.9335C35.7118 51.4926 35.2511 51.9566 34.6967 52.2789C34.1423 52.6012 33.5137 52.7705 32.8741 52.7698H13.375C12.7345 52.7684 12.1057 52.5971 11.5514 52.2731C10.997 51.949 10.5367 51.4835 10.2165 50.9233L0.48728 33.8531C0.167383 33.2913 -0.000976562 32.6546 -0.000976562 32.0066C-0.000976563 31.3585 0.167383 30.7218 0.48728 30.16L10.2571 13.1104C10.5776 12.5518 11.0385 12.0888 11.5931 11.7681C12.1478 11.4474 12.7765 11.2805 13.4156 11.2844Z" fill="url(#paint0_linear_518_25)"/>
<path d="M54.9323 40.8802H61.5031C61.711 40.8891 61.9132 40.9512 62.0909 41.0607C62.2685 41.1701 62.4157 41.3233 62.5187 41.506L65.799 47.261C65.9089 47.449 65.9669 47.6633 65.9669 47.8816C65.9669 48.0999 65.9089 48.3143 65.799 48.5023L62.5085 54.247C62.4011 54.437 62.246 54.5949 62.0587 54.7048C61.8714 54.8147 61.6587 54.8727 61.4422 54.8728H54.912C54.7041 54.8639 54.5019 54.8018 54.3243 54.6923C54.1466 54.5829 53.9994 54.4297 53.8964 54.247L50.6161 48.492C50.5112 48.3023 50.4561 48.0887 50.4561 47.8714C50.4561 47.6541 50.5112 47.4404 50.6161 47.2507L53.8253 41.506C53.9343 41.3083 54.0955 41.1451 54.291 41.0346C54.4865 40.9241 54.7085 40.8706 54.9323 40.8802Z" fill="url(#paint1_linear_518_25)"/>
<path d="M55.5518 -6.47735e-07H65.3927C65.7236 -0.00299238 66.0493 0.0828054 66.3366 0.248624C66.6238 0.414442 66.8624 0.654334 67.0278 0.943783L71.933 9.55068C72.0924 9.83361 72.1762 10.1535 72.1762 10.4791C72.1762 10.8046 72.0924 11.1245 71.933 11.4075L66.9669 20.0041C66.8036 20.2856 66.5709 20.5196 66.2915 20.6832C66.012 20.8468 65.6954 20.9345 65.3724 20.9376H55.5314C55.2081 20.9365 54.8906 20.8497 54.6108 20.6859C54.331 20.5221 54.0987 20.287 53.937 20.0041L49.0317 11.387C48.8724 11.104 48.7886 10.7841 48.7886 10.4586C48.7886 10.133 48.8724 9.8131 49.0317 9.53016L53.9573 0.923266C54.1195 0.641576 54.3522 0.407964 54.6321 0.2459C54.912 0.0838368 55.2292 -0.000970468 55.5518 -6.47735e-07Z" fill="url(#paint2_linear_518_25)"/>
<path d="M78.6258 23.9639C78.0606 23.9804 77.5158 24.1811 77.0729 24.5361C76.6299 24.8911 76.3125 25.3813 76.1681 25.9335H52.0685C51.7226 25.9289 51.3842 25.8315 51.088 25.6512C50.7917 25.4709 50.5483 25.2143 50.3826 24.9077L40.0745 6.44235C39.7928 5.93284 39.3819 5.50837 38.8838 5.21266C38.3858 4.91695 37.8187 4.76068 37.241 4.75995H22.4948C22.3677 4.23645 22.0705 3.77109 21.6507 3.43823C21.231 3.10537 20.7129 2.9242 20.1793 2.92368C19.7045 2.92824 19.2418 3.07578 18.8504 3.34742C18.4591 3.61906 18.1568 4.00244 17.9824 4.44854C17.8079 4.89464 17.7691 5.38317 17.871 5.85164C17.9729 6.32011 18.2109 6.74724 18.5544 7.07837C18.9993 7.51725 19.598 7.76063 20.2199 7.75544C20.7061 7.74703 21.1783 7.58945 21.5737 7.30362C21.9691 7.01779 22.2691 6.61722 22.4339 6.15511H37.241C37.5856 6.15939 37.9227 6.2568 38.2174 6.4372C38.512 6.6176 38.7535 6.87441 38.9167 7.18096L49.2248 25.6463C49.5081 26.1566 49.9209 26.5815 50.4207 26.8772C50.9205 27.1729 51.4892 27.3287 52.0685 27.3287H76.1681C76.3174 27.8917 76.6458 28.3896 77.1028 28.7455C77.5597 29.1014 78.1199 29.2957 78.6969 29.2983C79.041 29.2923 79.3805 29.2178 79.6961 29.0792C80.0117 28.9406 80.2972 28.7405 80.5363 28.4905C80.7753 28.2404 80.9633 27.9453 81.0894 27.6218C81.2156 27.2984 81.2774 26.953 81.2714 26.6055C81.2654 26.2579 81.1917 25.9149 81.0545 25.5961C80.9172 25.2773 80.7192 24.989 80.4717 24.7475C80.2241 24.506 79.9319 24.3161 79.6117 24.1887C79.2915 24.0613 78.9496 23.9989 78.6055 24.0049L78.6258 23.9639ZM78.6969 27.9339C78.3494 27.9339 78.0162 27.7945 77.7705 27.5463C77.5248 27.2982 77.3868 26.9616 77.3868 26.6106C77.3868 26.2596 77.5248 25.923 77.7705 25.6748C78.0162 25.4267 78.3494 25.2872 78.6969 25.2872C79.0444 25.2872 79.3776 25.4267 79.6233 25.6748C79.869 25.923 80.007 26.2596 80.007 26.6106C80.007 26.9616 79.869 27.2982 79.6233 27.5463C79.3776 27.7945 79.0444 27.9339 78.6969 27.9339Z" fill="#fff"/>
<path d="M61.4522 32.6939C60.9206 32.7006 60.4066 32.8872 59.9924 33.2238C59.5781 33.5604 59.2876 34.0276 59.1672 34.5507H52.2714C51.8855 34.5518 51.5066 34.6558 51.1732 34.8521C50.8397 35.0485 50.5635 35.3302 50.3723 35.6689L41.425 52.1953C41.0642 52.0908 40.6853 52.0658 40.3141 52.122C39.9429 52.1783 39.5879 52.3144 39.2733 52.5213C38.9587 52.7281 38.6918 53.0009 38.4906 53.321C38.2894 53.6411 38.1587 54.0012 38.1072 54.3768C38.0558 54.7524 38.0849 55.1348 38.1924 55.498C38.3 55.8613 38.4836 56.197 38.7308 56.4824C38.978 56.7677 39.2831 56.9961 39.6252 57.152C39.9674 57.308 40.3388 57.3878 40.7141 57.3861C41.2264 57.3738 41.7239 57.2106 42.1455 56.9166C42.5672 56.6226 42.8947 56.2106 43.0878 55.7312C43.2809 55.2518 43.3311 54.7258 43.2324 54.218C43.1337 53.7101 42.8902 53.2424 42.532 52.8724L51.5402 36.3152C51.6149 36.1865 51.7218 36.0799 51.8501 36.0061C51.9785 35.9323 52.1237 35.8938 52.2714 35.8946H59.2078C59.3641 36.3706 59.6652 36.7847 60.0683 37.0776C60.4713 37.3705 60.9557 37.5273 61.4522 37.5257C62.0596 37.4857 62.6292 37.2137 63.0453 36.7651C63.4615 36.3164 63.6931 35.7246 63.6931 35.1098C63.6931 34.4949 63.4615 33.9032 63.0453 33.4545C62.6292 33.0058 62.0596 32.7339 61.4522 32.6939ZM40.7446 56.0628C40.3971 56.0628 40.0639 55.9234 39.8182 55.6752C39.5725 55.427 39.4345 55.0904 39.4345 54.7394C39.4345 54.3885 39.5725 54.0519 39.8182 53.8037C40.0639 53.5555 40.3971 53.4161 40.7446 53.4161C41.0921 53.4161 41.4253 53.5555 41.671 53.8037C41.9167 54.0519 42.0547 54.3885 42.0547 54.7394C42.0547 55.0904 41.9167 55.427 41.671 55.6752C41.4253 55.9234 41.0921 56.0628 40.7446 56.0628Z" fill="#fff"/>
</g>
<defs>
<linearGradient id="paint0_linear_518_25" x1="37.4998" y1="11" x2="-0.000244993" y2="67.5" gradientUnits="userSpaceOnUse">
<stop stop-color="#00ffff"/>
<stop offset="1" stop-color="#4caffe"/>
</linearGradient>
<linearGradient id="paint1_linear_518_25" x1="62.9995" y1="56" x2="53.4995" y2="41" gradientUnits="userSpaceOnUse">
<stop stop-color="#4caffe"/>
<stop offset="1" stop-color="#00ffff"/>
</linearGradient>
<linearGradient id="paint2_linear_518_25" x1="54.4995" y1="21" x2="68.9995" y2="-3.00002" gradientUnits="userSpaceOnUse">
<stop stop-color="#00ffff"/>
<stop offset="1" stop-color="#4caffe"/>
</linearGradient>
<clipPath id="clip0_518_25">
<rect width="81.297" height="57.3861" fill="white"/>
</clipPath>
</defs>
</svg>
